<svg id="svg" version="1.1" xmlns="http://www.w3.org/2000/svg" xmlns:xlink="http://www.w3.org/1999/xlink" width="400" height="400" viewBox="0, 0, 400,400"><g id="svgg"><path id="path0" d="M186.307 0.478 C 186.201 0.796,184.459 1.046,181.125 1.223 C 178.362 1.370,175.941 1.589,175.745 1.711 C 175.549 1.832,173.990 2.043,172.281 2.180 C 170.572 2.318,168.718 2.603,168.161 2.815 C 167.604 3.027,166.437 3.200,165.569 3.200 C 164.700 3.200,163.677 3.375,163.295 3.590 C 162.913 3.804,161.430 4.172,160.000 4.407 C 155.381 5.168,153.853 5.495,150.905 6.355 C 149.313 6.820,147.568 7.200,147.029 7.200 C 146.489 7.200,145.936 7.380,145.800 7.600 C 145.664 7.820,145.158 8.001,144.676 8.002 C 144.194 8.004,143.284 8.274,142.654 8.602 C 142.024 8.931,141.115 9.200,140.634 9.200 C 140.153 9.200,139.589 9.343,139.380 9.518 C 139.171 9.693,137.920 10.161,136.600 10.558 C 135.280 10.955,133.924 11.419,133.587 11.589 C 133.250 11.759,132.397 12.025,131.691 12.180 C 130.986 12.335,130.306 12.628,130.181 12.831 C 130.055 13.034,129.601 13.200,129.171 13.200 C 128.741 13.200,128.077 13.371,127.695 13.581 C 127.313 13.790,126.325 14.240,125.500 14.581 C 124.088 15.164,122.293 15.912,120.000 16.873 C 119.450 17.104,118.730 17.453,118.400 17.649 C 118.070 17.845,117.530 18.111,117.200 18.240 C 116.096 18.671,113.007 20.083,112.400 20.433 C 111.055 21.210,106.719 23.200,106.372 23.200 C 106.167 23.200,106.000 23.380,106.000 23.600 C 106.000 23.820,105.662 24.000,105.249 24.000 C 104.836 24.000,104.274 24.270,104.000 24.600 C 103.726 24.930,103.335 25.200,103.132 25.200 C 102.928 25.200,101.777 25.830,100.573 26.600 C 99.369 27.370,98.230 28.000,98.041 28.000 C 97.852 28.000,97.474 28.270,97.200 28.600 C 96.926 28.930,96.379 29.200,95.984 29.200 C 95.590 29.200,95.207 29.353,95.133 29.539 C 95.060 29.726,93.740 30.663,92.200 31.621 C 90.660 32.580,89.310 33.462,89.200 33.582 C 88.788 34.031,84.028 37.200,83.765 37.200 C 83.615 37.200,83.075 37.650,82.565 38.200 C 82.055 38.750,81.533 39.200,81.405 39.200 C 81.020 39.200,75.957 43.063,73.669 45.101 C 72.497 46.146,71.362 47.064,71.145 47.141 C 70.929 47.219,70.268 47.734,69.676 48.285 C 69.084 48.836,66.997 50.753,65.039 52.544 C 58.098 58.890,49.053 68.315,46.181 72.194 C 45.531 73.071,44.622 74.151,44.161 74.594 C 43.699 75.037,42.860 76.120,42.296 77.000 C 41.731 77.880,40.804 79.087,40.235 79.683 C 39.666 80.278,39.200 80.910,39.200 81.087 C 39.200 81.263,38.789 81.856,38.286 82.404 C 37.107 83.689,35.492 86.035,32.369 91.000 C 30.985 93.200,29.738 95.090,29.597 95.200 C 29.457 95.310,29.226 95.670,29.084 96.000 C 28.942 96.330,28.278 97.500,27.609 98.600 C 26.940 99.700,26.283 100.915,26.150 101.300 C 26.016 101.685,25.748 102.000,25.553 102.000 C 25.359 102.000,25.200 102.324,25.200 102.720 C 25.200 103.116,25.013 103.627,24.784 103.856 C 24.222 104.418,22.889 106.748,22.356 108.100 C 22.117 108.705,21.759 109.200,21.561 109.200 C 21.362 109.200,21.200 109.453,21.200 109.763 C 21.200 110.073,20.771 111.198,20.247 112.263 C 19.355 114.076,18.821 115.226,16.281 120.800 C 15.730 122.010,15.054 123.630,14.779 124.400 C 14.505 125.170,14.061 126.340,13.794 127.000 C 13.527 127.660,12.996 129.010,12.613 130.000 C 12.231 130.990,11.756 132.113,11.559 132.495 C 11.362 132.877,11.200 133.441,11.200 133.749 C 11.200 134.057,10.931 134.824,10.602 135.454 C 10.274 136.084,10.004 136.904,10.002 137.276 C 10.001 137.648,9.820 138.064,9.600 138.200 C 9.380 138.336,9.194 139.022,9.187 139.724 C 9.180 140.426,8.910 141.349,8.587 141.776 C 8.264 142.204,8.000 143.048,8.000 143.653 C 8.000 144.258,7.820 144.864,7.600 145.000 C 7.380 145.136,7.200 145.856,7.200 146.600 C 7.200 147.344,7.037 148.054,6.837 148.177 C 6.638 148.300,6.351 149.300,6.200 150.400 C 6.049 151.500,5.762 152.500,5.563 152.623 C 5.363 152.746,5.200 153.469,5.200 154.229 C 5.200 154.989,5.028 155.923,4.818 156.305 C 4.402 157.064,3.734 160.408,3.234 164.245 C 3.058 165.591,2.793 166.887,2.645 167.126 C 2.497 167.366,2.284 168.695,2.171 170.081 C 2.058 171.466,1.858 172.870,1.725 173.200 C 1.593 173.530,1.364 175.589,1.217 177.775 C 1.049 180.274,0.773 181.809,0.475 181.908 C -0.196 182.132,-0.212 217.863,0.458 218.086 C 0.733 218.178,1.036 219.831,1.216 222.219 C 1.549 226.655,2.253 231.561,2.824 233.428 C 3.031 234.104,3.200 235.421,3.200 236.355 C 3.200 237.289,3.368 238.367,3.574 238.751 C 3.779 239.135,4.059 240.428,4.195 241.625 C 4.332 242.821,4.614 243.971,4.822 244.180 C 5.030 244.389,5.200 245.233,5.200 246.056 C 5.200 246.879,5.363 247.654,5.563 247.777 C 5.762 247.900,6.049 248.900,6.200 250.000 C 6.351 251.100,6.638 252.100,6.837 252.223 C 7.037 252.346,7.200 252.808,7.200 253.248 C 7.200 254.151,8.263 257.835,8.829 258.895 C 9.033 259.277,9.200 260.006,9.200 260.515 C 9.200 261.024,9.343 261.611,9.518 261.820 C 9.693 262.029,10.161 263.280,10.558 264.600 C 10.955 265.920,11.442 267.313,11.640 267.695 C 11.838 268.077,12.000 268.589,12.000 268.834 C 12.000 269.079,12.288 269.936,12.641 270.740 C 12.993 271.543,13.460 272.650,13.678 273.200 C 13.896 273.750,14.327 274.710,14.637 275.332 C 14.947 275.955,15.200 276.810,15.200 277.232 C 15.200 277.655,15.380 278.000,15.600 278.000 C 15.820 278.000,16.000 278.326,16.000 278.724 C 16.000 279.121,16.264 279.796,16.587 280.224 C 16.910 280.651,17.180 281.405,17.187 281.900 C 17.194 282.395,17.345 282.800,17.523 282.800 C 17.701 282.800,18.168 283.565,18.561 284.500 C 19.976 287.866,20.428 288.770,20.811 289.007 C 21.025 289.139,21.200 289.582,21.200 289.990 C 21.200 290.399,21.335 290.793,21.500 290.867 C 21.935 291.060,23.200 293.565,23.200 294.232 C 23.200 294.545,23.377 294.800,23.592 294.800 C 23.808 294.800,24.098 295.250,24.236 295.800 C 24.374 296.350,24.626 296.800,24.797 296.800 C 24.967 296.800,25.210 297.115,25.337 297.500 C 26.716 301.690,35.240 310.000,38.160 310.000 C 38.512 310.000,38.800 310.180,38.800 310.400 C 38.800 310.620,39.295 310.806,39.900 310.814 C 40.505 310.822,41.450 311.086,42.000 311.400 C 43.250 312.115,55.064 312.236,57.203 311.556 C 57.971 311.311,60.670 310.954,63.200 310.762 C 70.787 310.185,72.547 309.942,73.382 309.358 C 73.820 309.051,74.482 308.800,74.854 308.800 C 75.658 308.800,80.800 303.819,80.800 303.040 C 80.800 302.742,81.070 302.274,81.400 302.000 C 81.730 301.726,82.000 300.995,82.000 300.375 C 82.000 299.755,82.180 299.136,82.400 299.000 C 82.664 298.837,82.800 279.600,82.800 242.590 C 82.800 191.438,82.858 186.292,83.455 184.914 C 83.816 184.081,84.305 182.950,84.543 182.400 C 85.084 181.150,87.128 178.397,88.108 177.600 C 88.513 177.270,89.420 176.508,90.123 175.906 C 90.825 175.305,91.715 174.810,92.100 174.806 C 92.485 174.803,92.800 174.620,92.800 174.400 C 92.800 174.180,93.205 173.999,93.700 173.998 C 94.195 173.996,95.116 173.726,95.746 173.398 C 98.887 171.759,133.293 172.760,135.075 174.541 C 135.217 174.684,135.595 174.800,135.914 174.800 C 136.233 174.800,137.084 175.295,137.804 175.900 C 138.524 176.505,139.488 177.281,139.946 177.625 C 141.004 178.420,142.789 180.933,143.764 183.000 C 144.178 183.880,144.671 184.913,144.859 185.295 C 145.046 185.677,145.200 210.922,145.200 241.395 C 145.200 295.972,145.212 296.800,145.976 296.800 C 146.403 296.800,146.864 296.620,147.000 296.400 C 147.136 296.180,147.822 295.994,148.524 295.986 C 149.226 295.978,150.250 295.714,150.800 295.400 C 151.350 295.086,152.464 294.822,153.276 294.814 C 154.088 294.806,154.864 294.620,155.000 294.400 C 155.136 294.180,155.742 294.000,156.347 294.000 C 156.952 294.000,157.796 293.736,158.224 293.413 C 158.651 293.090,159.314 292.820,159.697 292.813 C 161.576 292.778,166.800 286.897,166.800 284.815 C 166.800 284.451,167.064 283.804,167.387 283.376 C 167.898 282.701,167.976 273.528,167.987 212.700 C 167.996 166.375,168.135 142.800,168.400 142.800 C 168.620 142.800,168.800 142.392,168.800 141.893 C 168.800 141.394,169.250 140.323,169.800 139.514 C 170.350 138.705,170.800 137.912,170.800 137.753 C 170.800 137.168,175.166 133.378,176.660 132.665 C 177.507 132.261,178.710 131.676,179.332 131.365 C 181.005 130.530,217.167 130.529,218.738 131.364 C 219.322 131.674,220.441 132.207,221.224 132.547 C 223.259 133.431,226.313 136.242,227.786 138.588 C 230.589 143.050,230.397 137.998,230.432 207.946 C 230.449 242.626,230.554 270.775,230.665 270.500 C 230.776 270.225,231.280 270.000,231.784 270.000 C 232.289 270.000,232.926 269.730,233.200 269.400 C 233.474 269.070,234.115 268.800,234.625 268.800 C 235.135 268.800,235.664 268.620,235.800 268.400 C 235.936 268.180,236.375 268.000,236.775 268.000 C 237.175 268.000,237.726 267.730,238.000 267.400 C 238.274 267.070,239.016 266.800,239.649 266.800 C 240.282 266.800,240.800 266.620,240.800 266.400 C 240.800 266.180,241.138 266.000,241.551 266.000 C 241.964 266.000,242.526 265.730,242.800 265.400 C 243.074 265.070,243.525 264.800,243.803 264.800 C 246.511 264.800,250.852 259.909,252.349 255.172 C 252.677 254.132,252.800 232.927,252.800 177.272 C 252.800 130.958,252.945 100.800,253.168 100.800 C 253.371 100.800,253.655 100.258,253.801 99.596 C 254.430 96.730,260.152 90.000,261.959 90.000 C 262.368 90.000,262.910 89.749,263.165 89.442 C 264.632 87.674,303.768 87.674,305.235 89.442 C 305.490 89.749,305.944 90.000,306.244 90.000 C 307.542 90.000,312.272 94.709,313.482 97.206 C 315.294 100.943,315.200 97.353,315.200 162.982 C 315.200 196.909,315.318 224.784,315.461 224.928 C 315.691 225.158,318.269 223.830,318.800 223.208 C 318.910 223.079,319.990 222.274,321.200 221.419 C 322.410 220.565,323.580 219.666,323.800 219.424 C 324.020 219.181,325.190 218.270,326.400 217.400 C 327.610 216.530,328.780 215.624,329.000 215.386 C 329.220 215.149,330.120 214.432,331.000 213.793 C 331.880 213.154,333.230 212.041,334.000 211.319 C 334.770 210.598,335.507 210.005,335.639 210.003 C 335.869 210.000,336.410 209.562,339.016 207.270 C 339.685 206.681,341.215 205.391,342.416 204.403 C 343.617 203.414,345.598 201.661,346.817 200.506 C 348.037 199.352,349.657 197.951,350.417 197.393 C 353.066 195.451,367.838 180.540,372.007 175.602 C 373.213 174.173,374.750 172.463,375.423 171.802 C 376.096 171.141,377.167 169.880,377.803 169.000 C 378.439 168.120,379.341 167.040,379.806 166.600 C 380.272 166.160,381.443 164.720,382.409 163.400 C 383.375 162.080,384.456 160.686,384.811 160.301 C 385.166 159.917,385.860 158.796,386.352 157.811 C 386.844 156.825,387.416 155.913,387.624 155.785 C 387.831 155.657,388.000 155.124,388.000 154.600 C 388.000 154.076,388.180 153.536,388.400 153.400 C 388.620 153.264,388.806 152.668,388.814 152.076 C 388.822 151.484,389.086 150.550,389.400 150.000 C 390.223 148.561,390.223 139.307,389.400 137.338 C 389.070 136.549,388.800 135.474,388.800 134.951 C 388.800 134.428,388.620 134.000,388.400 134.000 C 388.180 134.000,388.000 133.482,388.000 132.849 C 388.000 132.216,387.730 131.474,387.400 131.200 C 387.070 130.926,386.800 130.398,386.800 130.026 C 386.800 129.654,386.350 128.417,385.800 127.277 C 385.250 126.137,384.800 125.021,384.800 124.797 C 384.800 124.572,384.646 124.077,384.459 123.695 C 384.112 122.989,383.318 121.169,382.410 119.000 C 382.133 118.340,381.747 117.530,381.551 117.200 C 381.355 116.870,381.088 116.330,380.957 116.000 C 380.826 115.670,380.288 114.528,379.760 113.463 C 379.232 112.398,378.800 111.288,378.800 110.996 C 378.800 110.705,378.665 110.407,378.500 110.333 C 378.335 110.260,377.790 109.390,377.288 108.400 C 376.787 107.410,375.666 105.340,374.796 103.800 C 373.927 102.260,373.093 100.730,372.943 100.400 C 372.793 100.070,372.294 99.267,371.835 98.615 C 371.376 97.964,370.727 96.884,370.393 96.215 C 369.507 94.441,366.721 90.222,366.333 90.067 C 366.150 89.993,366.000 89.597,366.000 89.187 C 366.000 88.776,365.756 88.296,365.458 88.120 C 365.160 87.944,364.412 86.994,363.796 86.009 C 363.179 85.024,362.433 83.976,362.137 83.680 C 361.842 83.385,361.600 83.010,361.600 82.847 C 361.600 82.684,361.273 82.199,360.872 81.770 C 360.472 81.340,359.527 80.168,358.772 79.165 C 354.614 73.640,353.656 72.418,352.772 71.510 C 352.237 70.962,351.170 69.739,350.400 68.793 C 348.348 66.272,334.593 52.492,331.823 50.182 C 330.516 49.092,328.775 47.525,327.955 46.700 C 327.134 45.875,326.306 45.200,326.114 45.200 C 325.922 45.200,324.992 44.480,324.049 43.600 C 323.105 42.720,322.168 42.000,321.966 42.000 C 321.765 42.000,321.600 41.832,321.600 41.627 C 321.600 41.422,321.285 41.153,320.900 41.029 C 320.515 40.905,319.570 40.263,318.800 39.603 C 318.030 38.942,317.278 38.401,317.129 38.401 C 316.979 38.400,316.615 38.158,316.320 37.863 C 316.024 37.567,314.976 36.821,313.991 36.204 C 313.006 35.588,312.056 34.840,311.880 34.542 C 311.704 34.244,311.393 34.000,311.188 34.000 C 310.747 34.000,306.433 31.283,305.671 30.526 C 305.381 30.237,304.886 30.000,304.571 30.000 C 304.257 30.000,303.998 29.865,303.995 29.700 C 303.993 29.535,303.273 29.056,302.395 28.636 C 301.518 28.215,300.800 27.720,300.800 27.536 C 300.800 27.351,300.451 27.200,300.024 27.200 C 299.597 27.200,299.148 27.040,299.027 26.844 C 298.906 26.648,297.860 25.995,296.703 25.394 C 292.978 23.457,290.210 21.911,289.820 21.551 C 289.611 21.358,289.131 21.200,288.753 21.200 C 288.376 21.200,288.007 21.065,287.933 20.900 C 287.860 20.735,287.170 20.308,286.400 19.950 C 285.630 19.593,284.038 18.828,282.863 18.250 C 281.688 17.673,280.419 17.200,280.043 17.200 C 279.667 17.200,279.189 17.038,278.980 16.841 C 278.771 16.643,277.160 15.898,275.400 15.184 C 273.640 14.470,272.029 13.731,271.820 13.543 C 271.611 13.354,270.958 13.200,270.369 13.200 C 269.780 13.200,269.074 12.930,268.800 12.600 C 268.526 12.270,267.962 12.000,267.546 12.000 C 267.130 12.000,266.477 11.835,266.095 11.633 C 265.713 11.432,264.320 10.958,263.000 10.582 C 261.680 10.205,260.429 9.740,260.220 9.549 C 260.011 9.357,259.347 9.200,258.744 9.200 C 258.141 9.200,257.546 9.036,257.422 8.835 C 257.297 8.634,256.432 8.344,255.498 8.190 C 254.564 8.036,253.620 7.771,253.400 7.602 C 253.180 7.433,252.370 7.198,251.600 7.081 C 249.177 6.710,246.215 5.930,245.820 5.558 C 245.611 5.361,244.754 5.200,243.915 5.200 C 243.076 5.200,242.077 5.028,241.695 4.818 C 240.922 4.394,237.556 3.725,233.600 3.210 C 232.170 3.024,230.423 2.690,229.719 2.469 C 229.014 2.248,227.664 2.065,226.719 2.062 C 225.773 2.060,224.190 1.869,223.200 1.639 C 222.210 1.408,219.960 1.214,218.200 1.207 C 216.161 1.200,214.584 0.978,213.854 0.598 C 212.337 -0.194,186.568 -0.305,186.307 0.478 " stroke="none" fill="#14151c" fill-rule="evenodd"></path><path id="path1" d="M399.279 187.951 C 398.759 188.273,397.963 189.361,394.210 194.876 C 393.116 196.484,391.316 198.884,390.210 200.208 C 389.105 201.533,387.750 203.214,387.200 203.944 C 383.745 208.528,374.895 219.114,371.602 222.600 C 370.148 224.140,367.618 226.837,365.979 228.593 C 362.110 232.741,355.092 239.691,352.355 242.086 C 351.170 243.124,348.746 245.374,346.970 247.086 C 345.193 248.799,342.673 251.055,341.370 252.100 C 340.066 253.145,337.830 254.998,336.400 256.218 C 334.970 257.438,333.606 258.586,333.368 258.770 C 333.131 258.953,330.636 260.970,327.824 263.252 C 325.012 265.533,321.066 268.541,319.055 269.935 C 317.045 271.329,314.410 273.215,313.200 274.126 C 311.990 275.038,310.100 276.400,309.000 277.154 C 303.354 281.024,300.050 283.200,299.821 283.200 C 299.681 283.200,299.349 283.382,299.083 283.605 C 297.725 284.743,295.321 286.395,292.519 288.117 C 286.863 291.593,280.620 295.308,279.400 295.922 C 278.740 296.254,277.750 296.837,277.200 297.216 C 274.735 298.917,249.637 311.949,246.572 313.119 C 245.927 313.365,244.486 314.092,243.368 314.735 C 242.250 315.377,240.900 316.039,240.368 316.206 C 239.494 316.480,238.102 317.087,232.400 319.683 C 231.410 320.133,229.908 320.839,229.062 321.251 C 228.216 321.663,227.343 322.000,227.122 322.000 C 226.901 322.000,225.253 322.692,223.460 323.538 C 221.667 324.385,219.300 325.394,218.200 325.781 C 217.100 326.168,215.840 326.633,215.400 326.815 C 214.960 326.997,212.620 327.903,210.200 328.830 C 207.780 329.756,205.440 330.662,205.000 330.843 C 204.560 331.024,203.030 331.554,201.600 332.020 C 200.170 332.486,198.460 333.112,197.800 333.412 C 196.332 334.080,192.366 335.523,190.200 336.178 C 189.320 336.445,188.139 336.856,187.576 337.092 C 187.013 337.329,185.753 337.739,184.776 338.005 C 183.799 338.271,182.640 338.635,182.200 338.815 C 181.422 339.134,179.284 339.778,175.600 340.803 C 174.610 341.078,173.233 341.550,172.540 341.852 C 171.846 342.153,171.049 342.400,170.768 342.400 C 170.487 342.400,169.704 342.583,169.028 342.806 C 161.599 345.263,159.040 345.987,154.000 347.060 C 153.450 347.177,152.433 347.527,151.740 347.836 C 151.046 348.146,149.932 348.400,149.263 348.400 C 148.594 348.400,147.948 348.560,147.827 348.756 C 147.706 348.951,147.021 349.204,146.304 349.316 C 145.214 349.487,136.789 351.492,131.600 352.814 C 129.849 353.260,125.356 354.228,122.200 354.839 C 120.880 355.094,118.912 355.550,117.827 355.852 C 116.742 356.153,115.088 356.400,114.151 356.400 C 113.214 356.400,112.336 356.580,112.200 356.800 C 112.064 357.020,111.360 357.200,110.636 357.200 C 109.912 357.200,108.798 357.382,108.160 357.604 C 107.522 357.826,105.830 358.167,104.400 358.362 C 102.970 358.556,100.360 359.017,98.600 359.385 C 96.840 359.753,94.140 360.209,92.600 360.398 C 86.169 361.186,84.570 361.841,85.790 363.189 C 86.550 364.029,96.471 370.800,96.942 370.800 C 97.089 370.800,98.602 371.665,100.304 372.722 C 102.007 373.779,104.480 375.147,105.800 375.763 C 107.120 376.379,108.290 376.999,108.400 377.141 C 108.694 377.522,115.187 380.640,121.000 383.192 C 121.880 383.578,123.230 384.174,124.000 384.517 C 124.770 384.859,126.480 385.526,127.800 385.998 C 129.120 386.470,130.560 387.013,131.000 387.204 C 131.440 387.395,133.510 388.104,135.600 388.781 C 137.690 389.457,139.713 390.188,140.095 390.405 C 140.477 390.622,141.154 390.800,141.600 390.800 C 142.046 390.800,142.723 390.973,143.105 391.184 C 143.487 391.395,144.610 391.744,145.600 391.959 C 146.590 392.174,148.030 392.529,148.800 392.749 C 155.048 394.530,157.607 395.110,161.455 395.613 C 163.025 395.818,164.792 396.169,165.381 396.393 C 165.970 396.617,167.044 396.800,167.766 396.800 C 168.489 396.800,169.602 396.975,170.240 397.189 C 171.406 397.580,176.389 398.170,183.788 398.792 C 186.018 398.980,187.840 399.320,187.921 399.564 C 188.123 400.168,212.065 400.175,212.670 399.570 C 213.081 399.159,214.618 398.951,224.000 398.033 C 227.920 397.649,229.906 397.334,234.400 396.379 C 235.390 396.169,237.280 395.825,238.600 395.615 C 241.940 395.082,248.211 393.649,249.600 393.102 C 249.930 392.971,250.650 392.771,251.200 392.656 C 254.782 391.909,256.284 391.521,256.895 391.184 C 257.277 390.973,257.954 390.800,258.400 390.800 C 258.846 390.800,259.523 390.618,259.905 390.397 C 260.287 390.175,262.220 389.464,264.200 388.817 C 271.928 386.292,275.072 385.050,283.000 381.392 C 288.217 378.985,297.980 373.938,299.600 372.810 C 300.150 372.427,301.680 371.521,303.000 370.798 C 305.897 369.209,314.408 363.523,318.000 360.776 C 319.430 359.682,321.094 358.475,321.697 358.094 C 322.301 357.712,322.796 357.265,322.797 357.100 C 322.799 356.935,322.988 356.800,323.217 356.800 C 323.446 356.800,323.851 356.618,324.117 356.396 C 324.804 355.820,326.890 354.028,330.750 350.694 C 335.172 346.875,346.985 335.026,350.943 330.441 C 352.671 328.439,354.246 326.800,354.443 326.800 C 354.639 326.800,354.800 326.607,354.800 326.371 C 354.800 326.136,355.025 325.701,355.300 325.406 C 355.833 324.834,356.286 324.242,359.655 319.721 C 363.674 314.327,366.283 310.588,368.394 307.200 C 369.285 305.770,370.236 304.244,370.507 303.810 C 372.183 301.123,373.530 298.843,374.057 297.800 C 374.598 296.729,377.643 290.984,379.357 287.800 C 379.893 286.804,381.296 283.734,383.194 279.400 C 383.386 278.960,384.068 277.430,384.708 276.000 C 385.348 274.570,386.113 272.590,386.408 271.600 C 386.703 270.610,387.070 269.620,387.223 269.400 C 387.523 268.970,390.347 260.564,391.188 257.600 C 391.468 256.610,391.951 254.900,392.260 253.800 C 392.569 252.700,393.027 251.170,393.278 250.400 C 393.529 249.630,393.876 248.370,394.049 247.600 C 394.222 246.830,394.562 245.390,394.806 244.400 C 395.049 243.410,395.514 241.160,395.840 239.400 C 396.165 237.640,396.598 235.390,396.801 234.400 C 397.005 233.410,397.356 231.340,397.583 229.800 C 397.809 228.260,398.176 225.782,398.397 224.293 C 398.619 222.803,398.800 220.851,398.800 219.953 C 398.800 219.055,399.072 217.747,399.405 217.046 C 400.241 215.285,400.120 187.431,399.279 187.951 " stroke="none" fill="#f1bb0f" fill-rule="evenodd"></path><path id="path2" d="M0.000 90.000 C 0.000 149.733,0.135 180.000,0.400 180.000 C 0.640 180.000,0.800 178.408,0.800 176.024 C 0.800 173.837,0.953 171.952,1.141 171.837 C 1.328 171.721,1.587 170.369,1.716 168.833 C 1.845 167.297,2.141 165.683,2.375 165.247 C 2.609 164.810,2.800 163.641,2.800 162.650 C 2.800 161.658,2.980 160.736,3.200 160.600 C 3.420 160.464,3.601 159.598,3.602 158.676 C 3.604 157.754,3.874 156.484,4.202 155.854 C 4.531 155.224,4.800 154.020,4.800 153.178 C 4.800 152.336,4.980 151.536,5.200 151.400 C 5.420 151.264,5.601 150.668,5.602 150.076 C 5.604 149.484,5.874 148.484,6.202 147.854 C 6.531 147.224,6.800 146.200,6.800 145.578 C 6.800 144.956,6.956 144.351,7.147 144.232 C 7.339 144.114,7.611 143.294,7.752 142.409 C 7.894 141.524,8.187 140.800,8.405 140.800 C 8.622 140.800,8.800 140.181,8.800 139.424 C 8.800 138.667,8.980 137.936,9.200 137.800 C 9.420 137.664,9.601 137.158,9.602 136.676 C 9.604 136.194,9.874 135.284,10.202 134.654 C 10.531 134.024,10.800 133.257,10.800 132.949 C 10.800 132.384,10.923 132.081,12.132 129.668 C 12.500 128.935,12.800 128.077,12.800 127.762 C 12.800 127.184,12.921 126.886,14.132 124.468 C 14.500 123.735,14.800 122.805,14.800 122.401 C 14.800 121.997,14.935 121.607,15.100 121.533 C 15.488 121.361,16.800 118.867,16.800 118.302 C 16.800 117.580,18.131 114.800,18.477 114.800 C 18.655 114.800,18.800 114.365,18.800 113.833 C 18.800 113.302,18.935 112.807,19.100 112.733 C 19.535 112.540,20.800 110.035,20.800 109.368 C 20.800 109.055,20.960 108.800,21.157 108.800 C 21.353 108.800,21.626 108.350,21.764 107.800 C 21.902 107.250,22.192 106.800,22.408 106.800 C 22.623 106.800,22.800 106.526,22.800 106.192 C 22.800 105.858,23.250 104.871,23.800 104.000 C 24.350 103.129,24.800 102.232,24.800 102.008 C 24.800 101.784,24.980 101.600,25.200 101.600 C 25.420 101.600,25.600 101.352,25.600 101.049 C 25.600 100.746,25.870 100.274,26.200 100.000 C 26.530 99.726,26.800 99.164,26.800 98.751 C 26.800 98.338,26.977 98.000,27.192 98.000 C 27.408 98.000,27.698 97.550,27.836 97.000 C 27.974 96.450,28.247 96.000,28.443 96.000 C 28.640 96.000,28.800 95.730,28.800 95.400 C 28.800 95.070,28.960 94.800,29.157 94.800 C 29.353 94.800,29.626 94.350,29.764 93.800 C 29.902 93.250,30.192 92.800,30.408 92.800 C 30.623 92.800,30.800 92.530,30.800 92.200 C 30.800 91.870,30.935 91.597,31.100 91.594 C 31.265 91.591,32.030 90.513,32.800 89.200 C 33.570 87.887,34.335 86.809,34.500 86.806 C 34.665 86.803,34.800 86.530,34.800 86.200 C 34.800 85.870,34.968 85.600,35.173 85.600 C 35.378 85.600,35.647 85.285,35.771 84.900 C 35.894 84.515,36.446 83.677,36.998 83.038 C 37.549 82.399,38.000 81.758,38.000 81.613 C 38.000 81.469,38.323 81.002,38.718 80.575 C 39.112 80.149,40.230 78.721,41.202 77.402 C 42.174 76.084,43.381 74.623,43.885 74.156 C 44.388 73.690,44.800 73.135,44.800 72.924 C 44.800 72.712,45.975 71.293,47.412 69.770 C 48.848 68.246,50.423 66.468,50.912 65.818 C 52.220 64.077,63.020 53.297,65.769 50.989 C 67.072 49.895,68.602 48.543,69.169 47.985 C 69.736 47.426,70.920 46.439,71.800 45.792 C 72.680 45.145,73.763 44.252,74.206 43.808 C 75.210 42.801,77.862 40.800,78.192 40.800 C 78.328 40.800,78.855 40.350,79.365 39.800 C 79.875 39.250,80.520 38.800,80.800 38.800 C 81.080 38.800,81.725 38.350,82.235 37.800 C 82.745 37.250,83.350 36.800,83.581 36.800 C 83.811 36.800,84.000 36.632,84.000 36.427 C 84.000 36.222,84.315 35.953,84.700 35.829 C 85.085 35.706,85.923 35.154,86.562 34.602 C 87.201 34.051,87.884 33.600,88.079 33.600 C 88.274 33.600,88.831 33.228,89.317 32.774 C 89.803 32.319,90.785 31.669,91.500 31.328 C 92.215 30.987,92.800 30.549,92.800 30.354 C 92.800 30.159,93.057 30.000,93.371 30.000 C 93.686 30.000,94.181 29.773,94.471 29.495 C 94.762 29.218,95.450 28.772,96.000 28.504 C 96.550 28.237,97.720 27.575,98.600 27.033 C 101.757 25.089,113.033 19.290,116.819 17.662 C 118.019 17.147,119.872 16.292,120.937 15.762 C 122.002 15.233,123.100 14.800,123.377 14.800 C 123.654 14.800,124.727 14.350,125.762 13.800 C 126.796 13.250,127.978 12.800,128.389 12.800 C 128.799 12.800,129.735 12.500,130.468 12.132 C 132.881 10.923,133.184 10.800,133.749 10.800 C 134.057 10.800,134.824 10.531,135.454 10.202 C 136.084 9.874,136.994 9.604,137.476 9.602 C 137.958 9.601,138.464 9.420,138.600 9.200 C 138.736 8.980,139.445 8.800,140.175 8.800 C 140.905 8.800,141.726 8.530,142.000 8.200 C 142.274 7.870,143.005 7.600,143.625 7.600 C 144.245 7.600,144.864 7.420,145.000 7.200 C 145.136 6.980,145.755 6.800,146.375 6.800 C 146.995 6.800,148.149 6.530,148.938 6.200 C 149.728 5.870,150.920 5.600,151.587 5.600 C 152.254 5.600,152.800 5.420,152.800 5.200 C 152.800 4.980,153.685 4.800,154.767 4.800 C 155.915 4.800,156.798 4.605,156.890 4.331 C 156.977 4.068,158.134 3.783,159.529 3.683 C 160.895 3.584,162.111 3.345,162.230 3.151 C 162.349 2.958,163.258 2.800,164.250 2.800 C 165.241 2.800,166.405 2.611,166.836 2.381 C 167.884 1.820,173.532 1.166,179.300 0.939 C 181.885 0.836,184.000 0.584,184.000 0.376 C 184.000 0.142,149.235 0.000,92.000 0.000 L 0.000 0.000 0.000 90.000 M215.820 0.375 C 216.029 0.582,218.180 0.835,220.600 0.937 C 225.912 1.161,231.335 1.830,232.381 2.390 C 232.803 2.616,234.049 2.800,235.150 2.800 C 236.252 2.800,237.264 2.980,237.400 3.200 C 237.536 3.420,238.402 3.601,239.324 3.602 C 240.246 3.604,241.516 3.874,242.146 4.202 C 242.776 4.531,244.081 4.800,245.046 4.800 C 246.011 4.800,246.800 4.980,246.800 5.200 C 246.800 5.420,247.385 5.601,248.100 5.602 C 248.815 5.604,249.916 5.874,250.546 6.202 C 251.176 6.531,252.200 6.800,252.822 6.800 C 253.444 6.800,254.064 6.980,254.200 7.200 C 254.336 7.420,254.942 7.600,255.547 7.600 C 256.152 7.600,256.996 7.864,257.424 8.187 C 257.851 8.510,258.774 8.780,259.476 8.787 C 260.178 8.794,260.864 8.980,261.000 9.200 C 261.136 9.420,261.652 9.600,262.147 9.600 C 262.642 9.600,263.396 9.864,263.824 10.187 C 264.251 10.510,265.007 10.780,265.505 10.787 C 266.412 10.800,266.650 10.888,269.132 12.132 C 269.865 12.500,270.800 12.800,271.209 12.800 C 271.618 12.800,272.051 12.960,272.172 13.155 C 272.293 13.350,273.023 13.628,273.796 13.773 C 274.568 13.918,275.200 14.208,275.200 14.418 C 275.200 14.628,275.550 14.800,275.979 14.800 C 276.407 14.800,277.604 15.250,278.638 15.800 C 279.673 16.350,280.837 16.800,281.226 16.800 C 281.615 16.800,281.993 16.935,282.067 17.100 C 282.208 17.418,283.895 18.271,286.700 19.443 C 287.635 19.834,288.400 20.299,288.400 20.477 C 288.400 20.655,288.715 20.813,289.100 20.829 C 289.485 20.845,290.340 21.203,291.000 21.625 C 291.660 22.046,292.470 22.497,292.800 22.627 C 293.596 22.940,294.935 23.653,297.600 25.182 C 298.810 25.876,300.115 26.545,300.500 26.669 C 300.885 26.792,301.200 27.052,301.200 27.247 C 301.200 27.441,301.457 27.600,301.771 27.600 C 302.086 27.600,302.581 27.825,302.871 28.101 C 303.162 28.376,304.075 28.957,304.900 29.392 C 305.725 29.826,306.400 30.321,306.400 30.491 C 306.400 30.661,306.608 30.800,306.862 30.800 C 307.116 30.800,307.914 31.250,308.636 31.800 C 309.357 32.350,310.061 32.800,310.202 32.800 C 310.342 32.800,310.708 33.025,311.015 33.300 C 312.309 34.461,312.786 34.800,313.125 34.800 C 313.322 34.800,313.924 35.205,314.463 35.700 C 315.002 36.195,315.904 36.842,316.467 37.138 C 317.030 37.435,317.921 38.066,318.446 38.542 C 318.971 39.018,319.934 39.750,320.587 40.170 C 322.164 41.183,325.810 44.085,327.813 45.921 C 328.701 46.734,330.681 48.428,332.213 49.685 C 335.409 52.305,349.142 66.113,351.214 68.790 C 351.976 69.775,353.206 71.208,353.948 71.974 C 354.689 72.740,355.719 74.038,356.237 74.859 C 356.755 75.680,357.724 76.908,358.390 77.589 C 359.055 78.270,359.600 78.967,359.600 79.138 C 359.600 79.309,359.926 79.799,360.324 80.226 C 361.601 81.597,365.200 86.697,365.200 87.136 C 365.200 87.369,365.425 87.704,365.701 87.880 C 365.976 88.056,366.471 88.740,366.800 89.400 C 367.129 90.060,367.624 90.744,367.899 90.920 C 368.175 91.096,368.400 91.439,368.400 91.682 C 368.400 91.925,368.850 92.714,369.400 93.436 C 369.950 94.157,370.400 94.845,370.400 94.966 C 370.400 95.086,370.999 96.133,371.732 97.292 C 372.465 98.452,373.186 99.670,373.335 100.000 C 373.484 100.330,374.063 101.320,374.623 102.200 C 375.182 103.080,375.851 104.295,376.108 104.900 C 376.365 105.505,376.716 106.000,376.888 106.000 C 377.059 106.000,377.200 106.338,377.200 106.751 C 377.200 107.164,377.470 107.726,377.800 108.000 C 378.130 108.274,378.400 108.836,378.400 109.249 C 378.400 109.662,378.580 110.000,378.800 110.000 C 379.020 110.000,379.200 110.338,379.200 110.751 C 379.200 111.164,379.470 111.726,379.800 112.000 C 380.130 112.274,380.400 112.836,380.400 113.249 C 380.400 113.662,380.580 114.000,380.800 114.000 C 381.020 114.000,381.200 114.255,381.200 114.568 C 381.200 114.880,381.453 115.645,381.763 116.268 C 382.073 116.890,382.544 117.940,382.809 118.600 C 383.075 119.260,383.453 120.070,383.649 120.400 C 383.845 120.730,384.110 121.270,384.239 121.600 C 384.947 123.419,385.330 124.313,385.837 125.332 C 386.147 125.955,386.400 126.810,386.400 127.232 C 386.400 127.655,386.580 128.000,386.800 128.000 C 387.020 128.000,387.200 128.416,387.200 128.924 C 387.200 129.431,387.464 130.196,387.787 130.624 C 388.110 131.051,388.380 131.794,388.387 132.276 C 388.394 132.758,388.580 133.264,388.800 133.400 C 389.020 133.536,389.200 133.969,389.200 134.362 C 389.200 134.755,389.478 135.635,389.819 136.318 C 390.625 137.934,390.480 149.818,389.627 152.000 C 389.327 152.770,388.906 153.850,388.694 154.400 C 388.481 154.950,388.153 155.670,387.965 156.000 C 387.776 156.330,387.319 157.230,386.948 158.000 C 386.577 158.770,385.582 160.242,384.737 161.272 C 383.892 162.301,383.198 163.291,383.197 163.472 C 383.195 163.652,382.602 164.430,381.881 165.200 C 381.159 165.970,380.038 167.320,379.389 168.200 C 378.741 169.080,377.263 170.749,376.105 171.908 C 374.947 173.068,373.995 174.148,373.989 174.308 C 373.956 175.223,351.763 197.549,348.256 200.197 C 347.406 200.838,345.618 202.406,344.282 203.681 C 342.946 204.957,341.716 206.000,341.549 206.000 C 341.381 206.000,340.258 206.910,339.052 208.022 C 337.847 209.133,336.082 210.602,335.130 211.286 C 334.179 211.970,333.040 212.905,332.600 213.364 C 332.160 213.824,330.810 214.902,329.600 215.760 C 328.390 216.618,327.256 217.563,327.080 217.860 C 326.904 218.157,326.533 218.400,326.256 218.400 C 325.978 218.400,325.318 218.803,324.789 219.296 C 323.505 220.492,319.368 223.618,317.849 224.539 C 317.179 224.946,316.426 225.558,316.176 225.900 C 314.821 227.754,314.800 226.815,314.800 163.625 C 314.800 108.711,314.729 101.239,314.200 100.800 C 313.870 100.526,313.600 99.885,313.600 99.375 C 313.600 98.865,313.420 98.336,313.200 98.200 C 312.980 98.064,312.800 97.695,312.800 97.379 C 312.800 96.083,307.012 90.400,305.691 90.400 C 305.289 90.400,304.753 90.193,304.500 89.940 C 303.310 88.750,271.180 87.928,266.400 88.965 C 262.514 89.808,256.024 94.769,255.364 97.403 C 255.226 97.951,254.953 98.400,254.757 98.400 C 254.560 98.400,254.400 98.918,254.400 99.551 C 254.400 100.184,254.130 100.926,253.800 101.200 C 253.270 101.639,253.200 110.758,253.200 178.849 C 253.200 230.016,253.065 256.000,252.800 256.000 C 252.580 256.000,252.400 256.364,252.400 256.808 C 252.400 259.545,244.925 266.400,241.940 266.400 C 241.533 266.400,241.200 266.580,241.200 266.800 C 241.200 267.020,240.855 267.200,240.432 267.200 C 240.010 267.200,239.155 267.453,238.532 267.763 C 237.910 268.073,236.860 268.548,236.200 268.819 C 233.803 269.804,232.579 270.325,231.538 270.805 C 230.954 271.074,230.279 271.173,230.038 271.024 C 229.724 270.829,229.600 252.825,229.600 207.200 C 229.600 165.263,229.464 143.563,229.200 143.400 C 228.980 143.264,228.788 142.758,228.773 142.276 C 228.676 139.063,224.238 134.431,219.216 132.300 L 216.623 131.200 199.125 131.200 C 180.778 131.200,181.612 131.131,177.600 132.978 C 174.631 134.344,171.775 136.980,170.616 139.424 C 170.265 140.162,169.803 140.874,169.589 141.007 C 169.375 141.139,169.200 141.676,169.200 142.200 C 169.200 142.724,169.020 143.264,168.800 143.400 C 168.536 143.563,168.400 167.312,168.400 213.347 C 168.400 274.012,168.324 283.148,167.813 283.824 C 167.490 284.251,167.220 285.026,167.213 285.546 C 167.196 286.772,164.147 290.931,162.600 291.837 C 161.940 292.224,161.310 292.648,161.200 292.781 C 160.658 293.434,155.342 295.200,153.917 295.200 C 153.353 295.200,152.376 295.469,151.746 295.798 C 151.116 296.126,150.026 296.396,149.324 296.398 C 148.622 296.399,147.936 296.580,147.800 296.800 C 147.664 297.020,146.933 297.200,146.176 297.200 L 144.800 297.200 144.800 241.824 C 144.800 208.415,144.654 186.357,144.431 186.219 C 144.228 186.094,143.943 185.451,143.798 184.791 C 143.119 181.701,138.636 176.544,135.600 175.361 C 135.270 175.233,134.640 174.979,134.200 174.798 C 129.902 173.027,102.964 172.350,96.866 173.860 C 91.851 175.102,85.200 180.008,85.200 182.465 C 85.200 182.869,85.020 183.200,84.800 183.200 C 84.580 183.200,84.394 183.605,84.386 184.100 C 84.378 184.595,84.114 185.450,83.800 186.000 C 83.312 186.853,83.226 195.245,83.214 243.276 C 83.205 280.347,83.063 299.637,82.800 299.800 C 82.580 299.936,82.400 300.426,82.400 300.889 C 82.400 302.852,76.813 309.200,75.085 309.200 C 74.762 309.200,74.287 309.454,74.030 309.764 C 73.556 310.336,72.053 310.565,65.200 311.114 C 63.110 311.281,61.169 311.564,60.886 311.741 C 60.378 312.061,51.703 312.857,48.600 312.869 C 45.811 312.880,42.255 312.373,40.600 311.728 C 38.989 311.100,37.907 310.674,36.800 310.234 C 35.895 309.873,33.479 308.303,32.439 307.400 C 30.551 305.759,26.800 301.797,26.800 301.443 C 26.800 301.241,26.350 300.486,25.800 299.764 C 25.250 299.043,24.800 298.171,24.800 297.827 C 24.800 297.482,24.623 297.200,24.408 297.200 C 24.192 297.200,23.902 296.750,23.764 296.200 C 23.626 295.650,23.353 295.200,23.157 295.200 C 22.960 295.200,22.800 294.862,22.800 294.449 C 22.800 294.036,22.530 293.474,22.200 293.200 C 21.870 292.926,21.600 292.379,21.600 291.984 C 21.600 291.590,21.459 291.207,21.287 291.133 C 21.009 291.015,20.032 289.106,18.046 284.800 C 17.691 284.030,17.265 283.340,17.100 283.267 C 16.935 283.193,16.800 282.698,16.800 282.167 C 16.800 281.635,16.634 281.200,16.432 281.200 C 16.229 281.200,15.945 280.662,15.801 280.005 C 15.657 279.347,15.372 278.706,15.169 278.581 C 14.966 278.455,14.800 277.991,14.800 277.548 C 14.800 277.105,14.530 276.473,14.200 276.143 C 13.870 275.813,13.600 275.206,13.600 274.795 C 13.600 274.384,13.420 273.936,13.200 273.800 C 12.980 273.664,12.800 273.218,12.800 272.809 C 12.800 272.400,12.500 271.465,12.132 270.732 C 10.879 268.232,10.800 268.010,10.800 267.005 C 10.800 266.452,10.622 266.000,10.405 266.000 C 10.187 266.000,9.894 265.280,9.754 264.400 C 9.613 263.520,9.341 262.800,9.149 262.800 C 8.957 262.800,8.800 262.102,8.800 261.249 C 8.800 260.358,8.545 259.486,8.200 259.200 C 7.870 258.926,7.600 258.195,7.600 257.575 C 7.600 256.955,7.420 256.336,7.200 256.200 C 6.980 256.064,6.800 255.444,6.800 254.822 C 6.800 254.200,6.531 253.176,6.202 252.546 C 5.874 251.916,5.604 250.916,5.602 250.324 C 5.601 249.732,5.420 249.136,5.200 249.000 C 4.980 248.864,4.800 248.064,4.800 247.222 C 4.800 246.380,4.531 245.176,4.202 244.546 C 3.874 243.916,3.604 242.646,3.602 241.724 C 3.601 240.802,3.420 239.936,3.200 239.800 C 2.980 239.664,2.800 238.742,2.800 237.750 C 2.800 236.759,2.620 235.612,2.401 235.201 C 1.856 234.183,1.161 229.019,0.934 224.300 C 0.831 222.155,0.579 220.400,0.373 220.400 C 0.143 220.400,0.000 254.859,0.000 310.200 L 0.000 400.000 88.000 400.000 C 138.909 400.000,176.000 399.850,176.000 399.645 C 176.000 399.254,172.423 398.571,168.400 398.194 C 166.970 398.061,164.360 397.614,162.600 397.203 C 160.840 396.791,158.336 396.336,157.035 396.190 C 155.734 396.045,153.934 395.601,153.035 395.204 C 152.136 394.807,150.050 394.167,148.400 393.782 C 146.750 393.397,145.220 392.951,145.000 392.791 C 144.780 392.632,143.788 392.384,142.795 392.240 C 141.803 392.097,139.283 391.370,137.195 390.626 C 135.108 389.881,132.770 389.052,132.000 388.784 C 127.166 387.101,124.406 386.014,119.725 383.952 C 116.824 382.674,113.767 381.262,112.931 380.814 C 112.096 380.366,111.219 380.000,110.984 380.000 C 110.749 380.000,109.756 379.493,108.778 378.872 C 107.800 378.252,105.470 376.962,103.600 376.006 C 101.730 375.050,99.660 373.890,99.000 373.430 C 98.340 372.969,96.990 372.167,96.000 371.647 C 93.414 370.287,85.372 364.851,83.981 363.521 C 81.684 361.327,83.219 360.219,89.384 359.620 C 91.373 359.426,94.036 358.999,95.301 358.670 C 96.567 358.341,99.177 357.954,101.101 357.811 C 103.026 357.667,104.960 357.401,105.400 357.219 C 106.835 356.625,109.356 356.046,111.600 355.795 C 112.810 355.659,115.600 355.124,117.800 354.605 C 120.000 354.086,123.150 353.384,124.800 353.046 C 128.510 352.285,130.884 351.742,135.000 350.712 C 136.760 350.272,139.100 349.761,140.200 349.576 C 141.300 349.391,143.341 348.871,144.736 348.420 C 146.130 347.969,147.765 347.600,148.369 347.600 C 148.973 347.600,149.595 347.471,149.753 347.314 C 150.097 346.969,152.677 346.220,157.000 345.209 C 160.069 344.492,162.319 343.811,163.600 343.212 C 163.930 343.058,165.460 342.616,167.000 342.230 C 168.540 341.844,170.250 341.294,170.800 341.009 C 171.350 340.723,172.880 340.253,174.200 339.965 C 175.520 339.676,178.850 338.656,181.600 337.698 C 184.350 336.739,187.140 335.863,187.800 335.750 C 188.460 335.638,189.360 335.399,189.800 335.221 C 190.240 335.042,191.410 334.580,192.400 334.193 C 193.390 333.807,194.945 333.164,195.856 332.764 C 196.767 332.364,198.027 331.924,198.656 331.785 C 200.054 331.476,201.900 330.793,204.800 329.512 C 208.244 327.990,209.971 327.341,213.187 326.357 C 214.830 325.855,217.034 325.029,218.085 324.522 C 219.136 324.015,220.143 323.600,220.323 323.600 C 220.503 323.600,221.583 323.150,222.723 322.600 C 223.863 322.050,224.943 321.600,225.123 321.600 C 225.303 321.600,226.159 321.262,227.025 320.849 C 227.891 320.436,229.680 319.603,231.000 318.997 C 232.320 318.392,234.506 317.380,235.857 316.748 C 237.209 316.117,238.517 315.600,238.765 315.600 C 239.013 315.600,239.929 315.150,240.800 314.600 C 241.671 314.050,242.505 313.600,242.652 313.600 C 243.115 313.600,251.709 309.513,252.000 309.154 C 252.110 309.018,253.820 308.152,255.800 307.228 C 260.237 305.158,263.089 303.687,264.400 302.791 C 264.950 302.416,266.576 301.568,268.013 300.908 C 269.450 300.247,271.880 298.909,273.413 297.934 C 274.946 296.958,277.370 295.558,278.800 294.821 C 280.230 294.084,282.102 293.013,282.960 292.441 C 286.287 290.221,288.522 288.882,290.900 287.685 C 291.945 287.159,292.800 286.593,292.800 286.428 C 292.800 286.263,293.295 285.903,293.900 285.628 C 295.073 285.094,300.465 281.616,300.800 281.177 C 300.910 281.033,302.226 280.174,303.725 279.268 C 305.223 278.361,307.473 276.849,308.725 275.906 C 309.976 274.964,311.509 273.866,312.131 273.467 C 313.220 272.768,313.825 272.280,316.546 269.906 C 317.236 269.305,317.956 268.810,318.146 268.806 C 318.550 268.799,322.264 266.125,323.296 265.100 C 323.683 264.715,324.146 264.400,324.325 264.400 C 324.503 264.400,324.998 264.082,325.425 263.694 C 325.851 263.306,327.130 262.311,328.268 261.484 C 329.405 260.656,330.867 259.373,331.518 258.632 C 332.168 257.892,333.094 257.161,333.575 257.008 C 334.057 256.855,335.592 255.621,336.986 254.265 C 340.476 250.873,341.902 249.600,342.214 249.600 C 342.564 249.600,348.471 244.020,357.600 235.065 C 362.548 230.212,374.012 218.269,375.301 216.624 C 375.796 215.993,376.795 214.830,377.523 214.039 C 378.250 213.247,379.494 211.638,380.287 210.462 C 381.079 209.287,382.118 208.147,382.596 207.929 C 383.073 207.712,383.672 206.964,383.928 206.267 C 384.184 205.570,385.106 204.280,385.977 203.400 C 386.848 202.520,387.570 201.611,387.580 201.380 C 387.591 201.149,388.469 199.979,389.532 198.780 C 390.595 197.581,392.127 195.559,392.936 194.286 C 393.746 193.013,394.654 191.878,394.954 191.762 C 395.254 191.647,395.829 190.798,396.231 189.876 C 396.633 188.954,397.645 187.511,398.481 186.669 L 400.000 185.138 400.000 92.569 L 400.000 0.000 307.720 0.000 C 250.214 0.000,215.583 0.141,215.820 0.375 M399.053 227.926 C 398.694 229.206,398.400 230.834,398.400 231.544 C 398.400 233.022,397.329 237.858,396.773 238.895 C 396.568 239.277,396.400 240.419,396.400 241.433 C 396.400 243.337,395.383 247.510,394.756 248.180 C 394.560 248.389,394.400 249.177,394.400 249.932 C 394.400 250.686,393.965 252.675,393.433 254.352 C 392.901 256.028,391.892 259.290,391.190 261.600 C 390.489 263.910,389.124 267.795,388.157 270.234 C 387.191 272.673,386.400 274.864,386.400 275.102 C 386.400 275.340,386.137 276.045,385.815 276.668 C 385.494 277.290,384.589 279.240,383.804 281.000 C 383.020 282.760,381.843 285.235,381.189 286.499 C 380.535 287.764,380.000 289.033,380.000 289.321 C 380.000 289.608,379.435 290.734,378.744 291.822 C 378.053 292.910,376.763 295.240,375.877 297.000 C 374.991 298.760,374.033 300.477,373.747 300.816 C 373.461 301.155,372.719 302.442,372.096 303.675 C 370.775 306.295,365.206 314.400,364.727 314.400 C 364.547 314.400,364.400 314.627,364.400 314.904 C 364.400 315.181,363.995 315.866,363.500 316.425 C 363.005 316.985,362.420 317.732,362.200 318.087 C 357.126 326.259,343.985 340.804,333.184 350.200 C 330.908 352.180,328.406 354.445,327.623 355.233 C 326.840 356.022,325.930 356.764,325.600 356.884 C 325.070 357.076,319.824 360.837,316.645 363.304 C 316.010 363.797,315.295 364.273,315.057 364.363 C 314.818 364.452,313.538 365.359,312.211 366.378 C 309.084 368.781,304.421 371.708,299.600 374.295 C 299.050 374.590,296.980 375.694,295.000 376.749 C 293.020 377.804,290.860 378.962,290.200 379.322 C 288.582 380.205,283.750 382.400,283.424 382.400 C 283.281 382.400,281.507 383.200,279.482 384.179 C 277.457 385.157,275.080 386.223,274.200 386.547 C 273.320 386.871,271.340 387.613,269.800 388.196 C 265.323 389.891,259.979 391.655,257.600 392.224 C 253.356 393.238,248.589 394.483,247.400 394.887 C 246.740 395.111,244.940 395.551,243.400 395.864 C 241.860 396.177,238.620 396.864,236.200 397.391 C 233.780 397.919,230.205 398.433,228.256 398.534 C 225.727 398.664,224.528 398.901,224.070 399.358 C 223.481 399.947,230.699 400.000,311.714 400.000 L 400.000 400.000 400.000 312.800 C 400.000 264.840,399.934 225.600,399.853 225.600 C 399.772 225.600,399.412 226.647,399.053 227.926 " stroke="none" fill="#fbfbfb" fill-rule="evenodd"></path><path id="path3" d="M229.795 206.400 C 229.795 238.410,229.842 251.505,229.900 235.500 C 229.958 219.495,229.958 193.305,229.900 177.300 C 229.842 161.295,229.795 174.390,229.795 206.400 M398.160 186.900 C 397.518 187.615,396.656 188.954,396.246 189.876 C 395.836 190.798,395.254 191.647,394.954 191.762 C 394.654 191.878,393.746 193.013,392.936 194.286 C 392.127 195.559,390.595 197.581,389.532 198.780 C 388.469 199.979,387.591 201.149,387.580 201.380 C 387.570 201.611,386.848 202.520,385.977 203.400 C 385.106 204.280,384.184 205.570,383.928 206.267 C 383.672 206.964,383.073 207.712,382.596 207.929 C 382.118 208.147,381.079 209.287,380.287 210.462 C 379.494 211.638,378.250 213.247,377.523 214.039 C 376.795 214.830,375.796 215.993,375.301 216.624 C 374.012 218.269,362.548 230.212,357.600 235.065 C 348.471 244.020,342.564 249.600,342.214 249.600 C 341.902 249.600,340.476 250.873,336.986 254.265 C 335.592 255.621,334.057 256.855,333.575 257.008 C 333.094 257.161,332.168 257.892,331.518 258.632 C 330.867 259.373,329.405 260.656,328.268 261.484 C 327.130 262.311,325.851 263.306,325.425 263.694 C 324.998 264.082,324.503 264.400,324.325 264.400 C 324.146 264.400,323.683 264.715,323.296 265.100 C 322.264 266.125,318.550 268.799,318.146 268.806 C 317.956 268.810,317.236 269.305,316.546 269.906 C 313.825 272.280,313.220 272.768,312.131 273.467 C 311.509 273.866,309.976 274.964,308.725 275.906 C 307.473 276.849,305.223 278.361,303.725 279.268 C 302.226 280.174,300.910 281.033,300.800 281.177 C 300.465 281.616,295.073 285.094,293.900 285.628 C 293.295 285.903,292.800 286.263,292.800 286.428 C 292.800 286.593,291.945 287.159,290.900 287.685 C 288.522 288.882,286.287 290.221,282.960 292.441 C 282.102 293.013,280.230 294.084,278.800 294.821 C 277.370 295.558,274.946 296.958,273.413 297.934 C 271.880 298.909,269.450 300.247,268.013 300.908 C 266.576 301.568,264.950 302.416,264.400 302.791 C 263.089 303.687,260.237 305.158,255.800 307.228 C 253.820 308.152,252.110 309.018,252.000 309.154 C 251.709 309.513,243.115 313.600,242.652 313.600 C 242.505 313.600,241.671 314.050,240.800 314.600 C 239.929 315.150,239.013 315.600,238.765 315.600 C 238.517 315.600,237.209 316.117,235.857 316.748 C 234.506 317.380,232.320 318.392,231.000 318.997 C 229.680 319.603,227.891 320.436,227.025 320.849 C 226.159 321.262,225.303 321.600,225.123 321.600 C 224.943 321.600,223.863 322.050,222.723 322.600 C 221.583 323.150,220.503 323.600,220.323 323.600 C 220.143 323.600,219.136 324.015,218.085 324.522 C 217.034 325.029,214.830 325.855,213.187 326.357 C 209.971 327.341,208.244 327.990,204.800 329.512 C 201.900 330.793,200.054 331.476,198.656 331.785 C 198.027 331.924,196.767 332.364,195.856 332.764 C 194.945 333.164,193.390 333.807,192.400 334.193 C 191.410 334.580,190.240 335.042,189.800 335.221 C 189.360 335.399,188.460 335.638,187.800 335.750 C 187.140 335.863,184.350 336.739,181.600 337.698 C 178.850 338.656,175.520 339.676,174.200 339.965 C 172.880 340.253,171.350 340.723,170.800 341.009 C 170.250 341.294,168.540 341.844,167.000 342.230 C 165.460 342.616,163.930 343.058,163.600 343.212 C 162.319 343.811,160.069 344.492,157.000 345.209 C 152.677 346.220,150.097 346.969,149.753 347.314 C 149.595 347.471,148.973 347.600,148.369 347.600 C 147.765 347.600,146.130 347.969,144.736 348.420 C 143.341 348.871,141.300 349.391,140.200 349.576 C 139.100 349.761,136.760 350.272,135.000 350.712 C 130.884 351.742,128.510 352.285,124.800 353.046 C 123.150 353.384,120.000 354.086,117.800 354.605 C 115.600 355.124,112.810 355.659,111.600 355.795 C 109.356 356.046,106.835 356.625,105.400 357.219 C 104.960 357.401,103.026 357.667,101.101 357.811 C 99.177 357.954,96.567 358.341,95.301 358.670 C 94.036 358.999,91.373 359.426,89.384 359.620 C 83.219 360.219,81.684 361.327,83.981 363.521 C 85.372 364.851,93.414 370.287,96.000 371.647 C 96.990 372.167,98.340 372.969,99.000 373.430 C 99.660 373.890,101.730 375.050,103.600 376.006 C 105.470 376.962,107.800 378.252,108.778 378.872 C 109.756 379.493,110.749 380.000,110.984 380.000 C 111.219 380.000,112.096 380.366,112.931 380.814 C 113.767 381.262,116.824 382.674,119.725 383.952 C 124.406 386.014,127.166 387.101,132.000 388.784 C 132.770 389.052,135.108 389.881,137.195 390.626 C 139.283 391.370,141.803 392.097,142.795 392.240 C 143.788 392.384,144.780 392.632,145.000 392.791 C 145.220 392.951,146.750 393.397,148.400 393.782 C 150.050 394.167,152.136 394.807,153.035 395.204 C 153.934 395.601,155.734 396.045,157.035 396.190 C 158.336 396.336,160.840 396.791,162.600 397.203 C 164.360 397.614,166.970 398.061,168.400 398.194 C 172.423 398.571,176.000 399.254,176.000 399.645 C 176.000 399.840,178.700 400.000,182.000 400.000 C 185.733 400.000,188.000 399.849,188.000 399.600 C 188.000 399.380,187.955 399.192,187.900 399.183 C 187.845 399.173,186.000 399.006,183.800 398.811 C 175.891 398.111,171.380 397.571,170.240 397.189 C 169.602 396.975,168.489 396.800,167.766 396.800 C 167.044 396.800,165.970 396.617,165.381 396.393 C 164.792 396.169,163.025 395.818,161.455 395.613 C 157.607 395.110,155.048 394.530,148.800 392.749 C 148.030 392.529,146.590 392.174,145.600 391.959 C 144.610 391.744,143.487 391.395,143.105 391.184 C 142.723 390.973,142.046 390.800,141.600 390.800 C 141.154 390.800,140.477 390.622,140.095 390.405 C 139.713 390.188,137.690 389.457,135.600 388.781 C 133.510 388.104,131.440 387.395,131.000 387.204 C 130.560 387.013,129.120 386.470,127.800 385.998 C 126.480 385.526,124.770 384.859,124.000 384.517 C 123.230 384.174,121.880 383.578,121.000 383.192 C 115.187 380.640,108.694 377.522,108.400 377.141 C 108.290 376.999,107.120 376.379,105.800 375.763 C 104.480 375.147,102.007 373.779,100.304 372.722 C 98.602 371.665,97.089 370.800,96.942 370.800 C 96.471 370.800,86.550 364.029,85.790 363.189 C 84.570 361.841,86.169 361.186,92.600 360.398 C 94.140 360.209,96.840 359.753,98.600 359.385 C 100.360 359.017,102.970 358.556,104.400 358.362 C 105.830 358.167,107.522 357.826,108.160 357.604 C 108.798 357.382,109.912 357.200,110.636 357.200 C 111.360 357.200,112.064 357.020,112.200 356.800 C 112.336 356.580,113.214 356.400,114.151 356.400 C 115.088 356.400,116.742 356.153,117.827 355.852 C 118.912 355.550,120.880 355.094,122.200 354.839 C 125.356 354.228,129.849 353.260,131.600 352.814 C 136.789 351.492,145.214 349.487,146.304 349.316 C 147.021 349.204,147.706 348.951,147.827 348.756 C 147.948 348.560,148.594 348.400,149.263 348.400 C 149.932 348.400,151.046 348.146,151.740 347.836 C 152.433 347.527,153.450 347.177,154.000 347.060 C 159.040 345.987,161.599 345.263,169.028 342.806 C 169.704 342.583,170.487 342.400,170.768 342.400 C 171.049 342.400,171.846 342.153,172.540 341.852 C 173.233 341.550,174.610 341.078,175.600 340.803 C 179.284 339.778,181.422 339.134,182.200 338.815 C 182.640 338.635,183.799 338.271,184.776 338.005 C 185.753 337.739,187.013 337.329,187.576 337.092 C 188.139 336.856,189.320 336.445,190.200 336.178 C 192.366 335.523,196.332 334.080,197.800 333.412 C 198.460 333.112,200.170 332.486,201.600 332.020 C 203.030 331.554,204.560 331.024,205.000 330.843 C 205.440 330.662,207.780 329.756,210.200 328.830 C 212.620 327.903,214.960 326.997,215.400 326.815 C 215.840 326.633,217.100 326.168,218.200 325.781 C 219.300 325.394,221.667 324.385,223.460 323.538 C 225.253 322.692,226.901 322.000,227.122 322.000 C 227.343 322.000,228.216 321.663,229.062 321.251 C 229.908 320.839,231.410 320.133,232.400 319.683 C 238.102 317.087,239.494 316.480,240.368 316.206 C 240.900 316.039,242.250 315.377,243.368 314.735 C 244.486 314.092,245.927 313.365,246.572 313.119 C 249.637 311.949,274.735 298.917,277.200 297.216 C 277.750 296.837,278.740 296.254,279.400 295.922 C 280.620 295.308,286.863 291.593,292.519 288.117 C 295.321 286.395,297.725 284.743,299.083 283.605 C 299.349 283.382,299.681 283.200,299.821 283.200 C 300.050 283.200,303.354 281.024,309.000 277.154 C 310.100 276.400,311.990 275.038,313.200 274.126 C 314.410 273.215,317.045 271.329,319.055 269.935 C 321.066 268.541,325.012 265.533,327.824 263.252 C 330.636 260.970,333.131 258.953,333.368 258.770 C 333.606 258.586,334.970 257.438,336.400 256.218 C 337.830 254.998,340.066 253.145,341.370 252.100 C 342.673 251.055,345.193 248.799,346.970 247.086 C 348.746 245.374,351.170 243.124,352.355 242.086 C 355.092 239.691,362.110 232.741,365.979 228.593 C 367.618 226.837,370.148 224.140,371.602 222.600 C 374.895 219.114,383.745 208.528,387.200 203.944 C 387.750 203.214,389.105 201.533,390.210 200.208 C 391.316 198.884,393.116 196.484,394.210 194.876 C 398.080 189.188,398.783 188.241,399.388 187.903 C 400.023 187.548,400.256 185.600,399.664 185.600 C 399.480 185.600,398.803 186.185,398.160 186.900 M399.300 217.326 C 399.025 217.945,398.800 219.157,398.800 220.019 C 398.800 220.880,398.619 222.803,398.397 224.293 C 398.176 225.782,397.809 228.260,397.583 229.800 C 397.356 231.340,397.005 233.410,396.801 234.400 C 396.598 235.390,396.165 237.640,395.840 239.400 C 395.514 241.160,395.049 243.410,394.806 244.400 C 394.562 245.390,394.222 246.830,394.049 247.600 C 393.876 248.370,393.529 249.630,393.278 250.400 C 393.027 251.170,392.569 252.700,392.260 253.800 C 391.951 254.900,391.468 256.610,391.188 257.600 C 390.347 260.564,387.523 268.970,387.223 269.400 C 387.070 269.620,386.703 270.610,386.408 271.600 C 386.113 272.590,385.348 274.570,384.708 276.000 C 384.068 277.430,383.386 278.960,383.194 279.400 C 381.296 283.734,379.893 286.804,379.357 287.800 C 377.643 290.984,374.598 296.729,374.057 297.800 C 373.530 298.843,372.183 301.123,370.507 303.810 C 370.236 304.244,369.285 305.770,368.394 307.200 C 366.283 310.588,363.674 314.327,359.655 319.721 C 356.286 324.242,355.833 324.834,355.300 325.406 C 355.025 325.701,354.800 326.136,354.800 326.371 C 354.800 326.607,354.639 326.800,354.443 326.800 C 354.246 326.800,352.671 328.439,350.943 330.441 C 346.985 335.026,335.172 346.875,330.750 350.694 C 326.890 354.028,324.804 355.820,324.117 356.396 C 323.851 356.618,323.446 356.800,323.217 356.800 C 322.988 356.800,322.799 356.935,322.797 357.100 C 322.796 357.265,322.301 357.712,321.697 358.094 C 321.094 358.475,319.430 359.682,318.000 360.776 C 314.408 363.523,305.897 369.209,303.000 370.798 C 301.680 371.521,300.150 372.427,299.600 372.810 C 297.980 373.938,288.217 378.985,283.000 381.392 C 275.072 385.050,271.928 386.292,264.200 388.817 C 262.220 389.464,260.287 390.175,259.905 390.397 C 259.523 390.618,258.846 390.800,258.400 390.800 C 257.954 390.800,257.277 390.973,256.895 391.184 C 256.284 391.521,254.782 391.909,251.200 392.656 C 250.650 392.771,249.930 392.971,249.600 393.102 C 248.211 393.649,241.940 395.082,238.600 395.615 C 237.280 395.825,235.390 396.169,234.400 396.379 C 229.906 397.334,227.920 397.649,224.000 398.033 C 214.618 398.951,213.081 399.159,212.670 399.570 C 211.889 400.351,223.183 400.139,224.047 399.357 C 224.546 398.906,225.808 398.660,228.279 398.532 C 230.216 398.432,233.780 397.919,236.200 397.391 C 238.620 396.864,241.860 396.177,243.400 395.864 C 244.940 395.551,246.740 395.111,247.400 394.887 C 248.589 394.483,253.356 393.238,257.600 392.224 C 259.979 391.655,265.323 389.891,269.800 388.196 C 271.340 387.613,273.320 386.871,274.200 386.547 C 275.080 386.223,277.457 385.157,279.482 384.179 C 281.507 383.200,283.281 382.400,283.424 382.400 C 283.750 382.400,288.582 380.205,290.200 379.322 C 290.860 378.962,293.020 377.804,295.000 376.749 C 296.980 375.694,299.050 374.590,299.600 374.295 C 304.421 371.708,309.084 368.781,312.211 366.378 C 313.538 365.359,314.818 364.452,315.057 364.363 C 315.295 364.273,316.010 363.797,316.645 363.304 C 319.824 360.837,325.070 357.076,325.600 356.884 C 325.930 356.764,326.840 356.022,327.623 355.233 C 328.406 354.445,330.908 352.180,333.184 350.200 C 343.985 340.804,357.126 326.259,362.200 318.087 C 362.420 317.732,363.005 316.985,363.500 316.425 C 363.995 315.866,364.400 315.181,364.400 314.904 C 364.400 314.627,364.547 314.400,364.727 314.400 C 365.206 314.400,370.775 306.295,372.096 303.675 C 372.719 302.442,373.461 301.155,373.747 300.816 C 374.033 300.477,374.991 298.760,375.877 297.000 C 376.763 295.240,378.053 292.910,378.744 291.822 C 379.435 290.734,380.000 289.608,380.000 289.321 C 380.000 289.033,380.535 287.764,381.189 286.499 C 381.843 285.235,383.020 282.760,383.804 281.000 C 384.589 279.240,385.494 277.290,385.815 276.668 C 386.137 276.045,386.400 275.340,386.400 275.102 C 386.400 274.864,387.191 272.673,388.157 270.234 C 389.124 267.795,390.489 263.910,391.190 261.600 C 391.892 259.290,392.901 256.028,393.433 254.352 C 393.965 252.675,394.400 250.686,394.400 249.932 C 394.400 249.177,394.560 248.389,394.756 248.180 C 395.383 247.510,396.400 243.337,396.400 241.433 C 396.400 240.419,396.568 239.277,396.773 238.895 C 397.344 237.831,398.400 233.005,398.400 231.460 C 398.400 230.703,398.766 228.899,399.214 227.450 C 400.194 224.277,400.272 215.138,399.300 217.326 M84.830 361.710 C 84.781 362.188,84.232 362.096,84.060 361.580 C 83.972 361.316,84.116 361.172,84.380 361.260 C 84.644 361.348,84.847 361.550,84.830 361.710 " stroke="none" fill="#f8e698" fill-rule="evenodd"></path><path id="path4" d="M184.000 0.376 C 184.000 0.584,181.885 0.836,179.300 0.937 C 173.623 1.158,167.550 1.890,167.024 2.416 C 166.813 2.627,165.697 2.800,164.544 2.800 C 163.391 2.800,162.336 2.980,162.200 3.200 C 162.064 3.420,161.098 3.600,160.053 3.600 C 159.002 3.600,157.806 3.862,157.376 4.187 C 156.949 4.510,155.745 4.780,154.700 4.787 C 153.655 4.794,152.800 4.941,152.800 5.114 C 152.800 5.422,149.656 6.219,146.697 6.660 C 145.871 6.784,145.095 7.045,144.974 7.242 C 144.852 7.439,144.348 7.600,143.853 7.600 C 143.358 7.600,142.604 7.864,142.176 8.187 C 141.749 8.510,140.826 8.780,140.124 8.787 C 139.422 8.794,138.746 8.964,138.622 9.165 C 138.497 9.366,137.678 9.652,136.800 9.800 C 135.922 9.948,135.103 10.234,134.978 10.435 C 134.854 10.636,134.401 10.800,133.971 10.800 C 133.187 10.800,132.936 10.896,130.468 12.132 C 129.735 12.500,128.817 12.800,128.427 12.800 C 128.038 12.800,126.873 13.250,125.838 13.800 C 124.804 14.350,123.745 14.800,123.485 14.800 C 123.224 14.800,122.109 15.227,121.006 15.749 C 119.903 16.272,117.920 17.189,116.600 17.787 C 115.280 18.386,113.660 19.160,113.000 19.508 C 111.652 20.219,111.598 20.246,108.000 21.963 C 106.570 22.645,104.410 23.762,103.200 24.445 C 101.990 25.128,100.190 26.135,99.200 26.683 C 98.210 27.231,97.116 27.932,96.769 28.240 C 96.421 28.548,95.836 28.800,95.469 28.800 C 95.101 28.800,94.797 28.935,94.794 29.100 C 94.791 29.265,93.713 30.030,92.400 30.800 C 91.087 31.570,90.009 32.335,90.006 32.500 C 90.003 32.665,89.730 32.800,89.400 32.800 C 89.070 32.800,88.800 32.980,88.800 33.200 C 88.800 33.420,88.558 33.600,88.262 33.600 C 87.966 33.600,87.201 34.051,86.562 34.602 C 85.923 35.154,85.085 35.706,84.700 35.829 C 84.315 35.953,84.000 36.222,84.000 36.427 C 84.000 36.632,83.811 36.800,83.581 36.800 C 83.350 36.800,82.745 37.250,82.235 37.800 C 81.725 38.350,81.095 38.800,80.835 38.800 C 80.575 38.800,79.945 39.250,79.435 39.800 C 78.925 40.350,78.304 40.800,78.054 40.800 C 77.804 40.800,77.600 40.939,77.600 41.109 C 77.600 41.279,76.970 41.757,76.200 42.172 C 75.430 42.587,74.800 43.072,74.800 43.250 C 74.800 43.429,73.812 44.305,72.604 45.197 C 71.396 46.090,69.897 47.310,69.274 47.910 C 68.651 48.509,66.894 50.068,65.370 51.374 C 62.283 54.020,52.286 64.027,50.923 65.836 C 50.441 66.476,48.960 68.170,47.630 69.600 C 46.301 71.030,45.211 72.320,45.207 72.466 C 45.203 72.613,44.471 73.513,43.580 74.466 C 42.689 75.420,41.410 77.055,40.738 78.100 C 40.066 79.145,39.367 80.000,39.185 80.000 C 39.003 80.000,38.750 80.328,38.622 80.729 C 38.495 81.131,38.055 81.820,37.644 82.261 C 37.233 82.702,36.398 83.859,35.789 84.831 C 35.179 85.804,34.564 86.690,34.422 86.800 C 34.280 86.910,33.378 88.257,32.416 89.794 C 31.455 91.331,30.428 92.829,30.134 93.123 C 29.840 93.417,29.600 93.914,29.600 94.229 C 29.600 94.543,29.465 94.802,29.300 94.805 C 29.135 94.807,28.656 95.527,28.236 96.405 C 27.815 97.282,27.320 98.000,27.136 98.000 C 26.951 98.000,26.800 98.349,26.800 98.776 C 26.800 99.203,26.631 99.657,26.425 99.784 C 26.219 99.912,25.769 100.552,25.425 101.208 C 25.081 101.864,24.519 102.936,24.175 103.592 C 23.831 104.248,23.381 104.888,23.175 105.016 C 22.969 105.143,22.800 105.597,22.800 106.024 C 22.800 106.451,22.623 106.800,22.408 106.800 C 22.192 106.800,21.902 107.250,21.764 107.800 C 21.626 108.350,21.353 108.800,21.157 108.800 C 20.960 108.800,20.800 109.250,20.800 109.800 C 20.800 110.350,20.623 110.800,20.408 110.800 C 20.192 110.800,19.902 111.250,19.764 111.800 C 19.626 112.350,19.353 112.800,19.157 112.800 C 18.960 112.800,18.800 113.250,18.800 113.800 C 18.800 114.350,18.655 114.800,18.477 114.800 C 18.151 114.800,16.800 117.562,16.800 118.229 C 16.800 118.427,16.368 119.491,15.840 120.594 C 14.176 124.070,13.600 125.501,13.600 126.160 C 13.600 126.512,13.420 126.800,13.200 126.800 C 12.980 126.800,12.800 127.145,12.800 127.568 C 12.800 127.990,12.547 128.845,12.237 129.468 C 11.268 131.416,9.982 134.996,9.708 136.505 C 9.598 137.113,9.349 137.708,9.154 137.829 C 8.959 137.949,8.800 138.667,8.800 139.424 C 8.800 140.181,8.635 140.800,8.432 140.800 C 8.092 140.800,7.452 142.918,6.921 145.800 C 6.799 146.460,6.550 147.189,6.367 147.420 C 6.185 147.651,5.914 148.600,5.765 149.529 C 5.616 150.458,5.339 151.314,5.147 151.432 C 4.956 151.551,4.794 152.402,4.786 153.324 C 4.778 154.246,4.514 155.450,4.200 156.000 C 3.886 156.550,3.622 157.729,3.614 158.620 C 3.606 159.511,3.437 160.411,3.237 160.620 C 3.037 160.829,2.778 161.900,2.662 163.000 C 2.335 166.082,1.598 170.466,1.178 171.828 C 0.970 172.504,0.800 174.619,0.800 176.528 C 0.800 178.576,0.636 180.000,0.400 180.000 C 0.180 180.000,0.000 180.450,0.000 181.000 C 0.000 181.550,0.159 182.000,0.353 182.000 C 0.899 182.000,1.189 180.459,1.195 177.526 C 1.198 176.055,1.362 174.426,1.560 173.906 C 1.758 173.385,2.020 171.749,2.142 170.270 C 2.265 168.790,2.489 167.380,2.640 167.136 C 2.791 166.891,3.058 165.591,3.234 164.245 C 3.734 160.408,4.402 157.064,4.818 156.305 C 5.028 155.923,5.200 154.989,5.200 154.229 C 5.200 153.469,5.363 152.746,5.563 152.623 C 5.762 152.500,6.049 151.500,6.200 150.400 C 6.351 149.300,6.638 148.300,6.837 148.177 C 7.037 148.054,7.200 147.344,7.200 146.600 C 7.200 145.856,7.380 145.136,7.600 145.000 C 7.820 144.864,8.000 144.258,8.000 143.653 C 8.000 143.048,8.264 142.204,8.587 141.776 C 8.910 141.349,9.180 140.426,9.187 139.724 C 9.194 139.022,9.380 138.336,9.600 138.200 C 9.820 138.064,10.001 137.648,10.002 137.276 C 10.004 136.904,10.274 136.084,10.602 135.454 C 10.931 134.824,11.200 134.057,11.200 133.749 C 11.200 133.441,11.362 132.877,11.559 132.495 C 11.756 132.113,12.231 130.990,12.613 130.000 C 12.996 129.010,13.527 127.660,13.794 127.000 C 14.061 126.340,14.505 125.170,14.779 124.400 C 15.437 122.556,18.200 116.424,20.247 112.263 C 20.771 111.198,21.200 110.073,21.200 109.763 C 21.200 109.453,21.362 109.200,21.561 109.200 C 21.759 109.200,22.117 108.705,22.356 108.100 C 22.889 106.748,24.222 104.418,24.784 103.856 C 25.013 103.627,25.200 103.116,25.200 102.720 C 25.200 102.324,25.359 102.000,25.553 102.000 C 25.748 102.000,26.016 101.685,26.150 101.300 C 26.283 100.915,26.940 99.700,27.609 98.600 C 28.278 97.500,28.942 96.330,29.084 96.000 C 29.226 95.670,29.457 95.310,29.597 95.200 C 29.738 95.090,30.985 93.200,32.369 91.000 C 35.492 86.035,37.107 83.689,38.286 82.404 C 38.789 81.856,39.200 81.263,39.200 81.087 C 39.200 80.910,39.666 80.278,40.235 79.683 C 40.804 79.087,41.731 77.880,42.296 77.000 C 42.860 76.120,43.699 75.037,44.161 74.594 C 44.622 74.151,45.531 73.071,46.181 72.194 C 49.053 68.315,58.098 58.890,65.039 52.544 C 66.997 50.753,69.084 48.836,69.676 48.285 C 70.268 47.734,70.929 47.219,71.145 47.141 C 71.362 47.064,72.497 46.146,73.669 45.101 C 75.957 43.063,81.020 39.200,81.405 39.200 C 81.533 39.200,82.055 38.750,82.565 38.200 C 83.075 37.650,83.615 37.200,83.765 37.200 C 84.028 37.200,88.788 34.031,89.200 33.582 C 89.310 33.462,90.660 32.580,92.200 31.621 C 93.740 30.663,95.060 29.726,95.133 29.539 C 95.207 29.353,95.590 29.200,95.984 29.200 C 96.379 29.200,96.926 28.930,97.200 28.600 C 97.474 28.270,97.852 28.000,98.041 28.000 C 98.230 28.000,99.369 27.370,100.573 26.600 C 101.777 25.830,102.928 25.200,103.132 25.200 C 103.335 25.200,103.726 24.930,104.000 24.600 C 104.274 24.270,104.836 24.000,105.249 24.000 C 105.662 24.000,106.000 23.820,106.000 23.600 C 106.000 23.380,106.167 23.200,106.372 23.200 C 106.719 23.200,111.055 21.210,112.400 20.433 C 112.730 20.243,113.900 19.688,115.000 19.200 C 116.100 18.712,117.270 18.151,117.600 17.954 C 117.930 17.756,118.470 17.487,118.800 17.355 C 119.130 17.222,120.030 16.851,120.800 16.530 C 122.673 15.748,123.503 15.404,125.400 14.621 C 126.280 14.258,127.313 13.790,127.695 13.581 C 128.077 13.371,128.741 13.200,129.171 13.200 C 129.601 13.200,130.055 13.034,130.181 12.831 C 130.306 12.628,130.986 12.335,131.691 12.180 C 132.397 12.025,133.250 11.759,133.587 11.589 C 133.924 11.419,135.280 10.955,136.600 10.558 C 137.920 10.161,139.171 9.693,139.380 9.518 C 139.589 9.343,140.153 9.200,140.634 9.200 C 141.115 9.200,142.024 8.931,142.654 8.602 C 143.284 8.274,144.194 8.004,144.676 8.002 C 145.158 8.001,145.664 7.820,145.800 7.600 C 145.936 7.380,146.489 7.200,147.029 7.200 C 147.568 7.200,149.313 6.820,150.905 6.355 C 153.853 5.495,155.381 5.168,160.000 4.407 C 161.430 4.172,162.913 3.804,163.295 3.590 C 163.677 3.375,164.700 3.200,165.569 3.200 C 166.437 3.200,167.598 3.029,168.148 2.820 C 168.698 2.611,170.464 2.330,172.074 2.197 C 173.683 2.063,175.720 1.788,176.600 1.586 C 177.480 1.385,179.640 1.213,181.400 1.204 C 184.828 1.188,186.400 0.920,186.400 0.353 C 186.400 0.159,185.860 0.000,185.200 0.000 C 184.540 0.000,184.000 0.169,184.000 0.376 M213.519 0.479 C 213.802 0.762,215.946 1.069,218.756 1.229 C 221.373 1.378,223.713 1.623,223.956 1.773 C 224.199 1.923,225.315 2.053,226.436 2.062 C 227.558 2.070,229.043 2.256,229.738 2.474 C 230.432 2.693,232.170 3.024,233.600 3.210 C 237.556 3.725,240.922 4.394,241.695 4.818 C 242.077 5.028,243.076 5.200,243.915 5.200 C 244.754 5.200,245.611 5.361,245.820 5.558 C 246.215 5.930,249.177 6.710,251.600 7.081 C 252.370 7.198,253.180 7.433,253.400 7.602 C 253.620 7.771,254.564 8.036,255.498 8.190 C 256.432 8.344,257.297 8.634,257.422 8.835 C 257.546 9.036,258.141 9.200,258.744 9.200 C 259.347 9.200,260.011 9.357,260.220 9.549 C 260.429 9.740,261.680 10.205,263.000 10.582 C 264.320 10.958,265.713 11.432,266.095 11.633 C 266.477 11.835,267.130 12.000,267.546 12.000 C 267.962 12.000,268.526 12.270,268.800 12.600 C 269.074 12.930,269.780 13.200,270.369 13.200 C 270.958 13.200,271.611 13.354,271.820 13.543 C 272.029 13.731,273.640 14.470,275.400 15.184 C 277.160 15.898,278.771 16.643,278.980 16.841 C 279.189 17.038,279.667 17.200,280.043 17.200 C 280.419 17.200,281.688 17.673,282.863 18.250 C 284.038 18.828,285.630 19.593,286.400 19.950 C 287.170 20.308,287.860 20.735,287.933 20.900 C 288.007 21.065,288.376 21.200,288.753 21.200 C 289.131 21.200,289.611 21.358,289.820 21.551 C 290.210 21.911,292.978 23.457,296.703 25.394 C 297.860 25.995,298.906 26.648,299.027 26.844 C 299.148 27.040,299.597 27.200,300.024 27.200 C 300.451 27.200,300.800 27.351,300.800 27.536 C 300.800 27.720,301.518 28.215,302.395 28.636 C 303.273 29.056,303.993 29.535,303.995 29.700 C 303.998 29.865,304.257 30.000,304.571 30.000 C 304.886 30.000,305.381 30.237,305.671 30.526 C 306.433 31.283,310.747 34.000,311.188 34.000 C 311.393 34.000,311.704 34.244,311.880 34.542 C 312.056 34.840,313.006 35.588,313.991 36.204 C 314.976 36.821,316.024 37.567,316.320 37.863 C 316.615 38.158,316.979 38.400,317.129 38.401 C 317.278 38.401,318.030 38.942,318.800 39.603 C 319.570 40.263,320.515 40.905,320.900 41.029 C 321.285 41.153,321.600 41.422,321.600 41.627 C 321.600 41.832,321.765 42.000,321.966 42.000 C 322.168 42.000,323.105 42.720,324.049 43.600 C 324.992 44.480,325.922 45.200,326.114 45.200 C 326.306 45.200,327.134 45.875,327.955 46.700 C 328.775 47.525,330.516 49.092,331.823 50.182 C 334.593 52.492,348.348 66.272,350.400 68.793 C 351.170 69.739,352.237 70.962,352.772 71.510 C 353.656 72.418,354.614 73.640,358.772 79.165 C 359.527 80.168,360.472 81.340,360.872 81.770 C 361.273 82.199,361.600 82.684,361.600 82.847 C 361.600 83.010,361.842 83.385,362.137 83.680 C 362.433 83.976,363.179 85.024,363.796 86.009 C 364.412 86.994,365.160 87.944,365.458 88.120 C 365.756 88.296,366.000 88.776,366.000 89.187 C 366.000 89.597,366.150 89.993,366.333 90.067 C 366.721 90.222,369.507 94.441,370.393 96.215 C 370.727 96.884,371.376 97.964,371.835 98.615 C 372.294 99.267,372.793 100.070,372.943 100.400 C 373.093 100.730,373.927 102.260,374.796 103.800 C 375.666 105.340,376.787 107.410,377.288 108.400 C 377.790 109.390,378.335 110.260,378.500 110.333 C 378.665 110.407,378.800 110.705,378.800 110.996 C 378.800 111.480,380.372 114.957,381.243 116.400 C 381.442 116.730,381.710 117.270,381.839 117.600 C 382.403 119.047,383.991 122.741,384.459 123.695 C 384.646 124.077,384.800 124.572,384.800 124.797 C 384.800 125.021,385.250 126.137,385.800 127.277 C 386.350 128.417,386.800 129.654,386.800 130.026 C 386.800 130.398,387.070 130.926,387.400 131.200 C 387.730 131.474,388.000 132.216,388.000 132.849 C 388.000 133.482,388.180 134.000,388.400 134.000 C 388.620 134.000,388.800 134.428,388.800 134.951 C 388.800 135.474,389.070 136.549,389.400 137.338 C 390.223 139.307,390.223 148.561,389.400 150.000 C 389.086 150.550,388.822 151.484,388.814 152.076 C 388.806 152.668,388.620 153.264,388.400 153.400 C 388.180 153.536,388.000 154.076,388.000 154.600 C 388.000 155.124,387.831 155.657,387.624 155.785 C 387.416 155.913,386.844 156.825,386.352 157.811 C 385.860 158.796,385.166 159.917,384.811 160.301 C 384.456 160.686,383.375 162.080,382.409 163.400 C 381.443 164.720,380.272 166.160,379.806 166.600 C 379.341 167.040,378.439 168.120,377.803 169.000 C 377.167 169.880,376.096 171.141,375.423 171.802 C 374.750 172.463,373.213 174.173,372.007 175.602 C 367.838 180.540,353.066 195.451,350.417 197.393 C 349.657 197.951,348.037 199.352,346.817 200.506 C 345.598 201.661,343.617 203.414,342.416 204.403 C 341.215 205.391,339.685 206.681,339.016 207.270 C 336.410 209.562,335.869 210.000,335.639 210.003 C 335.507 210.005,334.770 210.598,334.000 211.319 C 333.230 212.041,331.880 213.154,331.000 213.793 C 330.120 214.432,329.220 215.149,329.000 215.386 C 328.780 215.624,327.610 216.530,326.400 217.400 C 325.190 218.270,324.020 219.181,323.800 219.424 C 323.580 219.666,322.410 220.565,321.200 221.419 C 319.990 222.274,318.910 223.079,318.800 223.208 C 318.269 223.830,315.691 225.158,315.461 224.928 C 315.318 224.784,315.200 196.909,315.200 162.982 C 315.200 97.353,315.294 100.943,313.482 97.206 C 312.272 94.709,307.542 90.000,306.244 90.000 C 305.944 90.000,305.490 89.749,305.235 89.442 C 303.768 87.674,264.632 87.674,263.165 89.442 C 262.910 89.749,262.368 90.000,261.959 90.000 C 260.152 90.000,254.430 96.730,253.801 99.596 C 253.655 100.258,253.371 100.800,253.168 100.800 C 252.945 100.800,252.800 130.958,252.800 177.272 C 252.800 232.927,252.677 254.132,252.349 255.172 C 250.852 259.909,246.511 264.800,243.803 264.800 C 243.525 264.800,243.074 265.070,242.800 265.400 C 242.526 265.730,241.964 266.000,241.551 266.000 C 241.138 266.000,240.800 266.180,240.800 266.400 C 240.800 266.620,240.282 266.800,239.649 266.800 C 239.016 266.800,238.274 267.070,238.000 267.400 C 237.726 267.730,237.175 268.000,236.775 268.000 C 236.375 268.000,235.936 268.180,235.800 268.400 C 235.664 268.620,235.135 268.800,234.625 268.800 C 234.115 268.800,233.474 269.070,233.200 269.400 C 232.926 269.730,232.289 270.000,231.784 270.000 C 231.280 270.000,230.776 270.225,230.665 270.500 C 230.554 270.775,230.449 242.626,230.432 207.946 C 230.397 137.998,230.589 143.050,227.786 138.588 C 226.313 136.242,223.259 133.431,221.224 132.547 C 220.441 132.207,219.322 131.674,218.738 131.364 C 217.167 130.529,181.005 130.530,179.332 131.365 C 178.710 131.676,177.507 132.261,176.660 132.665 C 175.166 133.378,170.800 137.168,170.800 137.753 C 170.800 137.912,170.350 138.705,169.800 139.514 C 169.250 140.323,168.800 141.394,168.800 141.893 C 168.800 142.392,168.620 142.800,168.400 142.800 C 168.135 142.800,167.996 166.375,167.987 212.700 C 167.976 273.528,167.898 282.701,167.387 283.376 C 167.064 283.804,166.800 284.451,166.800 284.815 C 166.800 286.897,161.576 292.778,159.697 292.813 C 159.314 292.820,158.651 293.090,158.224 293.413 C 157.796 293.736,156.952 294.000,156.347 294.000 C 155.742 294.000,155.136 294.180,155.000 294.400 C 154.864 294.620,154.088 294.806,153.276 294.814 C 152.464 294.822,151.350 295.086,150.800 295.400 C 150.250 295.714,149.226 295.978,148.524 295.986 C 147.822 295.994,147.136 296.180,147.000 296.400 C 146.864 296.620,146.403 296.800,145.976 296.800 C 145.212 296.800,145.200 295.972,145.200 241.395 C 145.200 210.922,145.046 185.677,144.859 185.295 C 144.671 184.913,144.178 183.880,143.764 183.000 C 142.789 180.933,141.004 178.420,139.946 177.625 C 139.488 177.281,138.524 176.505,137.804 175.900 C 137.084 175.295,136.233 174.800,135.914 174.800 C 135.595 174.800,135.217 174.684,135.075 174.541 C 133.293 172.760,98.887 171.759,95.746 173.398 C 95.116 173.726,94.195 173.996,93.700 173.998 C 93.205 173.999,92.800 174.180,92.800 174.400 C 92.800 174.620,92.485 174.803,92.100 174.806 C 91.715 174.810,90.825 175.305,90.123 175.906 C 89.420 176.508,88.513 177.270,88.108 177.600 C 87.128 178.397,85.084 181.150,84.543 182.400 C 84.305 182.950,83.816 184.081,83.455 184.914 C 82.858 186.292,82.800 191.438,82.800 242.590 C 82.800 279.600,82.664 298.837,82.400 299.000 C 82.180 299.136,82.000 299.755,82.000 300.375 C 82.000 300.995,81.730 301.726,81.400 302.000 C 81.070 302.274,80.800 302.742,80.800 303.040 C 80.800 303.819,75.658 308.800,74.854 308.800 C 74.482 308.800,73.820 309.051,73.382 309.358 C 72.547 309.942,70.787 310.185,63.200 310.762 C 60.670 310.954,57.971 311.311,57.203 311.556 C 55.064 312.236,43.250 312.115,42.000 311.400 C 41.450 311.086,40.505 310.822,39.900 310.814 C 39.295 310.806,38.800 310.620,38.800 310.400 C 38.800 310.180,38.512 310.000,38.160 310.000 C 35.240 310.000,26.716 301.690,25.337 297.500 C 25.210 297.115,24.967 296.800,24.797 296.800 C 24.626 296.800,24.374 296.350,24.236 295.800 C 24.098 295.250,23.808 294.800,23.592 294.800 C 23.377 294.800,23.200 294.545,23.200 294.232 C 23.200 293.565,21.935 291.060,21.500 290.867 C 21.335 290.793,21.200 290.399,21.200 289.990 C 21.200 289.582,21.025 289.139,20.811 289.007 C 20.428 288.770,19.976 287.866,18.561 284.500 C 18.168 283.565,17.701 282.800,17.523 282.800 C 17.345 282.800,17.194 282.395,17.187 281.900 C 17.180 281.405,16.910 280.651,16.587 280.224 C 16.264 279.796,16.000 279.121,16.000 278.724 C 16.000 278.326,15.820 278.000,15.600 278.000 C 15.380 278.000,15.200 277.655,15.200 277.232 C 15.200 276.810,14.947 275.955,14.637 275.332 C 14.327 274.710,13.896 273.750,13.678 273.200 C 13.460 272.650,12.993 271.543,12.641 270.740 C 12.288 269.936,12.000 269.079,12.000 268.834 C 12.000 268.589,11.838 268.077,11.640 267.695 C 11.442 267.313,10.955 265.920,10.558 264.600 C 10.161 263.280,9.693 262.029,9.518 261.820 C 9.343 261.611,9.200 261.024,9.200 260.515 C 9.200 260.006,9.033 259.277,8.829 258.895 C 8.263 257.835,7.200 254.151,7.200 253.248 C 7.200 252.808,7.037 252.346,6.837 252.223 C 6.638 252.100,6.351 251.100,6.200 250.000 C 6.049 248.900,5.762 247.900,5.563 247.777 C 5.363 247.654,5.200 246.879,5.200 246.056 C 5.200 245.233,5.030 244.389,4.822 244.180 C 4.614 243.971,4.331 242.818,4.195 241.618 C 4.058 240.418,3.826 239.248,3.680 239.018 C 3.533 238.788,3.284 237.520,3.126 236.200 C 2.542 231.309,1.974 227.768,1.592 226.640 C 1.377 226.002,1.200 224.360,1.200 222.990 C 1.200 220.081,0.846 218.000,0.350 218.000 C 0.158 218.000,0.000 218.540,0.000 219.200 C 0.000 219.860,0.180 220.400,0.400 220.400 C 0.636 220.400,0.800 221.824,0.800 223.872 C 0.800 225.781,0.966 227.896,1.170 228.572 C 1.635 230.120,2.434 234.778,2.684 237.400 C 2.788 238.500,3.037 239.571,3.237 239.780 C 3.437 239.989,3.600 240.900,3.600 241.804 C 3.600 242.707,3.864 243.796,4.187 244.224 C 4.510 244.651,4.780 245.844,4.787 246.876 C 4.794 247.908,4.959 248.851,5.154 248.971 C 5.348 249.092,5.629 249.998,5.777 250.986 C 5.925 251.973,6.216 252.886,6.423 253.014 C 6.630 253.142,6.800 253.856,6.800 254.600 C 6.800 255.344,6.980 256.064,7.200 256.200 C 7.420 256.336,7.600 256.955,7.600 257.575 C 7.600 258.195,7.870 258.926,8.200 259.200 C 8.530 259.474,8.800 260.295,8.800 261.025 C 8.800 261.755,8.980 262.464,9.200 262.600 C 9.420 262.736,9.601 263.152,9.602 263.524 C 9.604 263.896,9.874 264.716,10.202 265.346 C 10.531 265.976,10.800 266.910,10.800 267.422 C 10.800 267.934,10.980 268.464,11.200 268.600 C 11.420 268.736,11.600 269.184,11.600 269.595 C 11.600 270.006,11.870 270.613,12.200 270.943 C 12.530 271.273,12.800 271.995,12.800 272.548 C 12.800 273.101,12.980 273.664,13.200 273.800 C 13.420 273.936,13.600 274.375,13.600 274.775 C 13.600 275.175,13.870 275.726,14.200 276.000 C 14.530 276.274,14.800 276.826,14.800 277.228 C 14.800 277.629,15.250 278.804,15.800 279.838 C 16.350 280.873,16.800 282.037,16.800 282.426 C 16.800 282.815,16.935 283.193,17.100 283.267 C 17.265 283.340,17.691 284.030,18.046 284.800 C 20.032 289.106,21.009 291.015,21.287 291.133 C 21.459 291.207,21.600 291.590,21.600 291.984 C 21.600 292.379,21.870 292.926,22.200 293.200 C 22.530 293.474,22.800 294.036,22.800 294.449 C 22.800 294.862,22.960 295.200,23.157 295.200 C 23.353 295.200,23.626 295.650,23.764 296.200 C 23.902 296.750,24.192 297.200,24.408 297.200 C 24.623 297.200,24.800 297.482,24.800 297.827 C 24.800 298.171,25.250 299.043,25.800 299.764 C 26.350 300.486,26.800 301.240,26.800 301.442 C 26.800 301.918,29.984 305.200,30.446 305.200 C 30.641 305.200,30.800 305.470,30.800 305.800 C 30.800 306.130,30.935 306.400,31.100 306.401 C 31.265 306.401,32.030 306.954,32.800 307.629 C 33.570 308.304,34.560 309.023,35.000 309.227 C 35.440 309.431,36.070 309.758,36.400 309.953 C 36.730 310.148,37.450 310.486,38.000 310.704 C 38.550 310.922,39.540 311.324,40.200 311.597 C 41.512 312.140,46.688 312.931,48.600 312.881 C 51.917 312.793,60.033 312.027,60.464 311.760 C 60.735 311.593,62.767 311.318,64.978 311.149 C 70.540 310.724,73.517 310.243,74.081 309.679 C 74.345 309.415,74.805 309.200,75.104 309.200 C 76.745 309.200,82.400 302.813,82.400 300.958 C 82.400 300.457,82.580 299.936,82.800 299.800 C 83.063 299.637,83.205 280.347,83.214 243.276 C 83.226 195.245,83.312 186.853,83.800 186.000 C 84.114 185.450,84.378 184.595,84.386 184.100 C 84.394 183.605,84.580 183.200,84.800 183.200 C 85.020 183.200,85.200 182.854,85.200 182.431 C 85.200 181.282,90.304 176.225,92.400 175.298 C 99.923 171.970,129.458 172.182,136.138 175.612 C 139.285 177.228,143.156 181.866,143.798 184.791 C 143.943 185.451,144.228 186.094,144.431 186.219 C 144.654 186.357,144.800 208.415,144.800 241.824 L 144.800 297.200 146.176 297.200 C 146.933 297.200,147.664 297.020,147.800 296.800 C 147.936 296.580,148.622 296.399,149.324 296.398 C 150.026 296.396,151.116 296.126,151.746 295.798 C 152.376 295.469,153.353 295.200,153.917 295.200 C 155.100 295.200,157.295 294.570,158.932 293.760 C 159.555 293.452,160.320 293.200,160.632 293.200 C 160.945 293.200,161.201 293.065,161.203 292.900 C 161.204 292.735,161.727 292.303,162.365 291.940 C 163.984 291.019,167.197 286.817,167.212 285.600 C 167.220 285.050,167.490 284.251,167.813 283.824 C 168.324 283.148,168.400 274.012,168.400 213.347 C 168.400 167.312,168.536 143.563,168.800 143.400 C 169.020 143.264,169.200 142.799,169.200 142.367 C 169.200 139.821,173.759 134.730,177.600 132.987 C 178.370 132.637,179.510 132.092,180.132 131.776 C 181.790 130.933,216.575 130.921,218.268 131.763 C 218.890 132.073,219.940 132.564,220.600 132.855 C 223.318 134.053,226.204 136.714,227.481 139.200 C 227.876 139.970,228.335 140.660,228.500 140.733 C 228.665 140.807,228.800 141.356,228.800 141.953 C 228.800 142.551,229.025 143.265,229.300 143.540 C 229.695 143.935,229.820 157.361,229.893 207.480 C 229.944 242.372,230.080 271.013,230.194 271.127 C 230.308 271.241,230.896 271.105,231.501 270.825 C 232.572 270.329,233.756 269.824,236.200 268.819 C 236.860 268.548,237.910 268.073,238.532 267.763 C 239.155 267.453,240.010 267.200,240.432 267.200 C 240.855 267.200,241.200 267.020,241.200 266.800 C 241.200 266.580,241.526 266.400,241.924 266.400 C 242.321 266.400,242.996 266.136,243.424 265.813 C 243.851 265.490,244.505 265.220,244.877 265.213 C 246.534 265.182,252.400 258.646,252.400 256.832 C 252.400 256.400,252.580 255.936,252.800 255.800 C 253.064 255.637,253.200 229.479,253.200 178.625 C 253.200 110.733,253.270 101.639,253.800 101.200 C 254.130 100.926,254.400 100.271,254.400 99.743 C 254.400 96.333,261.394 90.051,266.400 88.965 C 268.249 88.564,300.142 88.586,302.200 88.990 C 303.080 89.163,304.155 89.551,304.589 89.852 C 305.023 90.153,305.610 90.400,305.892 90.400 C 306.962 90.400,312.800 96.154,312.800 97.208 C 312.800 97.619,312.957 97.987,314.132 100.332 C 314.747 101.560,314.800 106.570,314.800 163.832 C 314.800 213.305,314.902 225.998,315.300 225.991 C 315.575 225.986,316.250 225.630,316.800 225.200 C 317.350 224.770,317.938 224.414,318.106 224.409 C 318.380 224.401,321.371 222.124,323.989 219.930 C 324.534 219.474,325.434 218.810,325.989 218.454 C 326.545 218.098,327.360 217.471,327.800 217.060 C 328.240 216.650,329.301 215.865,330.157 215.316 C 331.014 214.767,332.094 213.921,332.557 213.436 C 333.021 212.950,334.120 212.027,335.000 211.383 C 335.880 210.739,337.462 209.403,338.515 208.414 C 339.569 207.424,340.732 206.446,341.100 206.240 C 341.753 205.874,343.467 204.407,345.585 202.400 C 346.165 201.850,347.351 200.869,348.220 200.220 C 350.309 198.660,371.461 177.613,373.000 175.562 C 373.660 174.683,374.837 173.297,375.617 172.482 C 376.396 171.667,378.277 169.470,379.798 167.600 C 381.319 165.730,382.706 164.140,382.881 164.067 C 383.057 163.993,383.203 163.723,383.208 163.467 C 383.212 163.210,383.852 162.280,384.630 161.400 C 385.408 160.520,386.398 159.080,386.830 158.200 C 387.261 157.320,387.770 156.330,387.961 156.000 C 388.413 155.218,388.931 153.882,389.781 151.313 C 390.630 148.744,390.568 136.806,389.700 135.939 C 389.425 135.665,389.200 135.037,389.200 134.544 C 389.200 134.051,389.020 133.536,388.800 133.400 C 388.580 133.264,388.400 132.735,388.400 132.225 C 388.400 131.715,388.130 131.074,387.800 130.800 C 387.470 130.526,387.200 129.784,387.200 129.151 C 387.200 128.518,387.020 128.000,386.800 128.000 C 386.580 128.000,386.400 127.655,386.400 127.232 C 386.400 126.810,386.147 125.955,385.837 125.332 C 385.527 124.710,385.056 123.660,384.791 123.000 C 384.525 122.340,384.147 121.530,383.951 121.200 C 383.755 120.870,383.490 120.330,383.361 120.000 C 383.233 119.670,382.989 119.040,382.820 118.600 C 382.650 118.160,381.767 116.270,380.856 114.399 C 379.945 112.529,379.200 110.774,379.200 110.499 C 379.200 110.225,379.020 110.000,378.800 110.000 C 378.580 110.000,378.400 109.662,378.400 109.249 C 378.400 108.836,378.130 108.274,377.800 108.000 C 377.470 107.726,377.200 107.164,377.200 106.751 C 377.200 106.338,377.040 106.000,376.843 106.000 C 376.647 106.000,376.384 105.591,376.259 105.092 C 376.134 104.593,375.664 103.790,375.215 103.309 C 374.767 102.827,374.400 102.178,374.400 101.866 C 374.400 101.553,374.130 101.074,373.800 100.800 C 373.470 100.526,373.200 100.135,373.200 99.932 C 373.200 99.728,372.570 98.577,371.800 97.373 C 371.030 96.169,370.400 95.030,370.400 94.841 C 370.400 94.652,370.147 94.288,369.837 94.031 C 369.527 93.774,368.979 92.941,368.618 92.182 C 368.257 91.422,367.791 90.800,367.581 90.800 C 367.372 90.800,367.200 90.592,367.200 90.338 C 367.200 90.084,366.750 89.286,366.200 88.564 C 365.650 87.843,365.200 87.088,365.200 86.885 C 365.200 86.683,364.795 86.076,364.300 85.537 C 363.805 84.998,363.158 84.096,362.862 83.533 C 362.565 82.970,361.935 82.079,361.462 81.554 C 360.988 81.029,360.078 79.880,359.440 79.000 C 358.802 78.120,358.060 77.217,357.791 76.993 C 357.522 76.769,356.947 76.003,356.514 75.291 C 356.080 74.578,355.023 73.231,354.163 72.297 C 353.303 71.363,351.890 69.699,351.021 68.599 C 349.000 66.040,334.033 51.081,331.400 48.989 C 330.300 48.115,328.818 46.815,328.107 46.100 C 327.396 45.385,326.646 44.800,326.440 44.800 C 326.235 44.800,326.007 44.664,325.933 44.497 C 325.860 44.330,324.990 43.567,324.000 42.801 C 323.010 42.034,321.851 41.091,321.425 40.704 C 320.998 40.317,320.527 40.000,320.379 40.000 C 320.230 40.000,319.499 39.463,318.754 38.806 C 318.009 38.150,317.175 37.610,316.900 37.606 C 316.625 37.603,316.400 37.420,316.400 37.200 C 316.400 36.980,316.229 36.800,316.021 36.800 C 315.812 36.800,315.156 36.350,314.562 35.800 C 313.969 35.250,313.317 34.800,313.113 34.800 C 312.909 34.800,312.492 34.575,312.185 34.300 C 310.944 33.187,310.420 32.800,310.155 32.800 C 310.001 32.800,309.286 32.350,308.564 31.800 C 307.843 31.250,307.139 30.800,307.000 30.800 C 306.861 30.800,306.157 30.350,305.436 29.800 C 304.714 29.250,303.916 28.800,303.662 28.800 C 303.408 28.800,303.200 28.640,303.200 28.443 C 303.200 28.247,302.750 27.974,302.200 27.836 C 301.650 27.698,301.200 27.408,301.200 27.192 C 301.200 26.977,300.855 26.800,300.433 26.800 C 300.012 26.800,299.607 26.647,299.533 26.460 C 299.383 26.077,294.449 23.267,292.800 22.625 C 292.470 22.496,291.660 22.046,291.000 21.625 C 290.340 21.203,289.485 20.845,289.100 20.829 C 288.715 20.813,288.400 20.655,288.400 20.477 C 288.400 20.299,287.635 19.834,286.700 19.443 C 283.895 18.271,282.208 17.418,282.067 17.100 C 281.993 16.935,281.543 16.794,281.067 16.787 C 280.590 16.780,279.851 16.510,279.424 16.187 C 278.996 15.864,278.321 15.600,277.924 15.600 C 277.526 15.600,277.200 15.420,277.200 15.200 C 277.200 14.980,276.855 14.800,276.432 14.800 C 276.010 14.800,275.065 14.500,274.332 14.132 C 271.914 12.921,271.616 12.800,271.038 12.800 C 270.723 12.800,269.865 12.500,269.132 12.132 C 266.668 10.898,266.413 10.800,265.651 10.800 C 265.233 10.800,264.376 10.531,263.746 10.202 C 263.116 9.874,262.296 9.604,261.924 9.602 C 261.552 9.601,261.136 9.420,261.000 9.200 C 260.864 8.980,260.178 8.794,259.476 8.787 C 258.774 8.780,257.851 8.510,257.424 8.187 C 256.996 7.864,256.152 7.600,255.547 7.600 C 254.942 7.600,254.336 7.420,254.200 7.200 C 254.064 6.980,253.344 6.800,252.600 6.800 C 251.856 6.800,251.139 6.625,251.007 6.412 C 250.875 6.198,249.870 5.904,248.775 5.759 C 247.679 5.613,246.685 5.338,246.567 5.147 C 246.449 4.956,245.589 4.800,244.656 4.800 C 243.723 4.800,242.770 4.610,242.537 4.377 C 242.304 4.144,241.093 3.849,239.845 3.720 C 238.597 3.591,237.481 3.331,237.365 3.143 C 237.248 2.954,236.252 2.800,235.150 2.800 C 234.049 2.800,232.808 2.618,232.393 2.396 C 231.373 1.851,225.529 1.132,220.400 0.922 C 218.090 0.827,216.029 0.581,215.820 0.375 C 215.611 0.169,214.900 0.000,214.240 0.000 C 213.308 0.000,213.147 0.107,213.519 0.479 M84.060 361.580 C 84.148 361.844,84.351 362.047,84.510 362.030 C 84.988 361.981,84.896 361.432,84.380 361.260 C 84.116 361.172,83.972 361.316,84.060 361.580 " stroke="none" fill="#9ea1a5" fill-rule="evenodd"></path></g></svg>